<svg width="64" height="62" viewBox="0 0 64 62" fill="none" xmlns="http://www.w3.org/2000/svg">
<path d="M0.499972 38.7478L7.54722 42.8164C7.66097 42.882 7.78653 42.9246 7.91674 42.9417C8.04695 42.9588 8.17926 42.9501 8.30611 42.9161C8.43295 42.8821 8.55186 42.8234 8.65602 42.7434C8.76019 42.6635 8.84759 42.5638 8.91322 42.45L9.1671 42.0103L13.2483 44.3998C13.1519 44.7467 13.103 45.1052 13.103 45.4654C13.101 45.9826 13.2016 46.495 13.399 46.973C13.5964 47.451 13.8867 47.8852 14.253 48.2503C14.6184 48.6162 15.0526 48.9063 15.5305 49.104C16.0084 49.3016 16.5207 49.4029 17.0378 49.402C17.1137 49.402 17.1897 49.399 17.2656 49.3948C17.2613 49.4698 17.2586 49.5448 17.2586 49.621C17.2575 50.1381 17.3585 50.6502 17.5558 51.1281C17.7532 51.606 18.043 52.0403 18.4086 52.4059C18.7742 52.7715 19.2084 53.0613 19.6863 53.2586C20.1642 53.456 20.6764 53.557 21.1935 53.5559C21.2697 53.5559 21.3456 53.5531 21.4212 53.5489C21.4167 53.6247 21.4143 53.7007 21.4141 53.7766C21.413 54.2937 21.514 54.8059 21.7113 55.2838C21.9086 55.7617 22.1984 56.196 22.5641 56.5616C22.9297 56.9272 23.3639 57.217 23.8418 57.4144C24.3197 57.6117 24.8319 57.7127 25.349 57.7116C25.6259 57.7116 25.902 57.6826 26.173 57.6254C26.2986 58.3968 26.695 59.0983 27.2911 59.6039C27.8871 60.1095 28.6439 60.3862 29.4255 60.3844C29.8207 60.3848 30.2129 60.3144 30.5833 60.1766L30.782 60.375C31.2105 60.8043 31.7492 61.107 32.3388 61.2498C32.9283 61.3925 33.5458 61.3699 34.1233 61.1843C34.7008 60.9987 35.2159 60.6574 35.6118 60.1979C36.0078 59.7384 36.2693 59.1786 36.3676 58.58C36.6383 58.6378 36.9144 58.6671 37.1912 58.6675C37.7275 58.6682 38.2583 58.5591 38.7509 58.347C39.2435 58.1349 39.6874 57.8243 40.0555 57.4342C40.4236 57.0442 40.7079 56.5829 40.8911 56.0789C41.0743 55.5748 41.1524 55.0386 41.1206 54.5033C41.1956 54.5075 41.2706 54.5101 41.3468 54.5101C41.8831 54.5112 42.4139 54.4025 42.9066 54.1906C43.3993 53.9788 43.8433 53.6683 44.2115 53.2784C44.5796 52.8884 44.864 52.4272 45.0471 51.9232C45.2303 51.4191 45.3083 50.8829 45.2763 50.3476C45.3513 50.3519 45.4263 50.3545 45.5026 50.3545C46.2237 50.3538 46.9308 50.1551 47.5467 49.7802C48.1627 49.4052 48.6639 48.8683 48.9957 48.2281C49.3275 47.5878 49.4772 46.8688 49.4284 46.1493C49.3796 45.4299 49.1343 44.7376 48.7191 44.148L54.2357 40.976L55.0867 42.45C55.2193 42.6797 55.4378 42.8473 55.6939 42.9159C55.9501 42.9845 56.223 42.9486 56.4527 42.816L63.5 38.7478C63.7296 38.6151 63.8972 38.3967 63.9659 38.1406C64.0345 37.8844 63.9986 37.6114 63.866 37.3818L54.6233 21.3731C54.4907 21.1435 54.2723 20.9759 54.0162 20.9073C53.7601 20.8387 53.4871 20.8746 53.2575 21.0071L46.2102 25.0759C45.9806 25.2085 45.813 25.4269 45.7443 25.6831C45.6757 25.9393 45.7116 26.2122 45.8442 26.4419L46.6616 27.8576L45.4933 28.3C44.9573 28.5145 44.3616 28.5265 43.8173 28.3339L36.028 25.7375C35.5957 25.5896 35.1383 25.5294 34.6825 25.5605C34.2268 25.5916 33.7818 25.7133 33.3736 25.9185L31.8236 26.6825C31.809 26.6738 31.7948 26.6644 31.7795 26.6563L29.9331 25.6813C29.4356 25.4147 28.8806 25.2735 28.3162 25.2701C27.7518 25.2666 27.1951 25.401 26.6943 25.6615L24.2296 26.924C24.0427 27.0285 23.8327 27.0847 23.6186 27.0876L17.7436 27.1549L18.1553 26.4415C18.288 26.2118 18.3239 25.9389 18.2552 25.6827C18.1866 25.4265 18.019 25.2081 17.7893 25.0755L10.7425 21.0071C10.5128 20.8746 10.2399 20.8387 9.98375 20.9073C9.7276 20.9759 9.50921 21.1435 9.3766 21.3731L0.133972 37.3818C0.00137018 37.6114 -0.0345644 37.8844 0.0340734 38.1406C0.102711 38.3967 0.270299 38.6151 0.499972 38.7478ZM15.6671 46.8365C15.3056 46.4719 15.1027 45.9792 15.1027 45.4658C15.1027 44.9523 15.3056 44.4596 15.6671 44.095L19.1836 40.5785C19.5476 40.217 20.04 40.0145 20.553 40.0154C21.066 40.0163 21.5577 40.2205 21.9204 40.5833C22.2832 40.9461 22.4873 41.4378 22.4881 41.9508C22.4889 42.4638 22.2864 42.9562 21.9248 43.3201L18.4086 46.8365C18.0447 47.1994 17.5518 47.4033 17.0378 47.4033C16.5239 47.4033 16.031 47.1994 15.6671 46.8365ZM19.8228 50.9921C19.4615 50.6277 19.2587 50.1352 19.2585 49.622C19.2583 49.1088 19.4608 48.6162 19.822 48.2515L19.8228 48.2506L23.3393 44.7343C23.7038 44.3752 24.1954 44.1749 24.707 44.1768C25.2186 44.1787 25.7087 44.3828 26.0704 44.7446C26.4322 45.1063 26.6363 45.5964 26.6382 46.108C26.6401 46.6196 26.4397 47.1112 26.0807 47.4756L22.5642 50.9921C22.2004 51.3551 21.7075 51.5589 21.1935 51.5589C20.6796 51.5589 20.1867 51.3551 19.8228 50.9921ZM23.9785 55.1478C23.6154 54.7839 23.4116 54.291 23.4116 53.777C23.4116 53.263 23.6154 52.7701 23.9785 52.4063L27.4948 48.8899C27.8584 48.5263 28.3515 48.3221 28.8656 48.3221C29.3797 48.3221 29.8728 48.5263 30.2363 48.8899C30.5999 49.2534 30.8041 49.7465 30.8041 50.2606C30.8041 50.7748 30.5999 51.2678 30.2363 51.6314C30.2028 51.6654 30.1718 51.7018 30.1435 51.7403C30.0385 51.8222 29.9386 51.9103 29.8442 52.0043L27.0927 54.7555C26.9986 54.8501 26.9103 54.9503 26.8282 55.0555C26.79 55.0837 26.7537 55.1146 26.7198 55.148C26.356 55.511 25.863 55.7148 25.3491 55.7147C24.8352 55.7147 24.3423 55.5108 23.9785 55.1478ZM28.5072 58.0071C28.2637 57.7634 28.127 57.4329 28.127 57.0884C28.127 56.7438 28.2637 56.4134 28.5072 56.1696L31.2585 53.4184C31.5021 53.1747 31.8326 53.0378 32.1772 53.0378C32.5218 53.0378 32.8523 53.1747 33.096 53.4184C33.3396 53.662 33.4765 53.9925 33.4765 54.3371C33.4765 54.6817 33.3396 55.0122 33.096 55.2559L30.3447 58.0071C30.1002 58.2492 29.77 58.385 29.426 58.385C29.0819 58.385 28.7517 58.2492 28.5072 58.0071ZM34.0333 58.9613C33.7915 59.2024 33.4645 59.3387 33.1231 59.3407C32.7816 59.3427 32.453 59.2103 32.2083 58.972L34.0445 57.1359C34.2828 57.3806 34.4153 57.7093 34.4132 58.0508C34.4111 58.3924 34.2747 58.7195 34.0333 58.9613ZM38.5625 56.102C38.1987 56.465 37.7057 56.6688 37.1918 56.6688C36.6779 56.6688 36.185 56.465 35.8212 56.102C35.7872 56.0685 35.7508 56.0374 35.7122 56.0091C35.6303 55.9042 35.5422 55.8042 35.4482 55.7099L35.2568 55.5185C35.4327 55.0617 35.5046 54.5714 35.4672 54.0834C35.4298 53.5953 35.2841 53.1217 35.0407 52.697C34.7973 52.2723 34.4623 51.9072 34.0601 51.6282C33.6579 51.3493 33.1985 51.1634 32.7155 51.0843C32.8248 50.57 32.8309 50.0392 32.7333 49.5226C33.1015 49.318 33.5262 49.2387 33.9434 49.2967C34.3605 49.3547 34.7475 49.5468 35.0458 49.8441L38.5625 53.3606C38.9255 53.7244 39.1294 54.2174 39.1294 54.7313C39.1294 55.2453 38.9255 55.7382 38.5625 56.102ZM42.7182 51.9464C42.3536 52.3078 41.861 52.5105 41.3476 52.5105C40.8342 52.5105 40.3416 52.3078 39.977 51.9464L36.4604 48.4299C36.1075 48.0644 35.9123 47.5749 35.9167 47.0669C35.921 46.5589 36.1246 46.073 36.4837 45.7135C36.8427 45.3541 37.3285 45.15 37.8365 45.1452C38.3445 45.1403 38.8341 45.335 39.2 45.6875V45.6883L42.7165 49.2046C43.0797 49.5683 43.2839 50.0612 43.2841 50.5753C43.2843 51.0893 43.0806 51.5824 42.7176 51.9464H42.7182ZM46.8737 47.7908C46.51 48.1537 46.0171 48.3576 45.5032 48.3576C44.9893 48.3576 44.4964 48.1537 44.1326 47.7908L40.616 44.2743C40.257 43.9098 40.0566 43.4182 40.0585 42.9066C40.0604 42.395 40.2645 41.9049 40.6263 41.5432C40.988 41.1814 41.4781 40.9773 41.9897 40.9754C42.5013 40.9735 42.9929 41.1739 43.3573 41.5329L46.8733 45.05C47.2348 45.4146 47.4376 45.9073 47.4376 46.4207C47.4376 46.9341 47.2348 47.4267 46.8733 47.7914L46.8737 47.7908ZM53.3921 23.2393L61.6346 37.5156L56.3193 40.5844L48.0761 26.3079L53.3921 23.2393ZM34.2578 27.7125C34.4317 27.6215 34.6226 27.5676 34.8185 27.5542C35.0143 27.5409 35.2107 27.5684 35.3953 27.635L43.1848 30.2315C44.1662 30.568 45.2349 30.5465 46.2018 30.1706L47.675 29.6125L53.2361 39.2444L47.3062 42.6539L44.7711 40.1186C44.5026 39.8501 44.1965 39.622 43.8625 39.4414L35.8906 33.465C35.384 33.0859 34.7791 32.8602 34.148 32.815L32.9766 32.7116C32.3207 32.6486 31.6604 32.7743 31.0735 33.074C30.4867 33.3736 29.9977 33.8347 29.6641 34.403L28.1112 36.9566C28.0883 36.9998 28.0522 37.0345 28.0082 37.0557C27.9642 37.0769 27.9146 37.0835 27.8666 37.0746L25.5041 36.7771C25.4684 36.7726 25.4341 36.7605 25.4036 36.7415C25.373 36.7225 25.3469 36.6972 25.327 36.6672C25.3072 36.6372 25.294 36.6033 25.2885 36.5677C25.2829 36.5322 25.2851 36.4959 25.2948 36.4613L26.5323 32.0738C26.5849 31.8694 26.6822 31.6792 26.8172 31.5169C26.9522 31.3547 27.1214 31.2244 27.3128 31.1355L34.2578 27.7125ZM23.6416 29.0875C24.1651 29.0817 24.6795 28.9503 25.1416 28.7041L27.6063 27.4416C27.8208 27.3262 28.0607 27.2665 28.3042 27.268C28.5477 27.2695 28.787 27.332 29 27.45L29.6113 27.7726L26.4281 29.3418C25.9848 29.554 25.5927 29.8595 25.2784 30.2373C24.964 30.6152 24.735 31.0564 24.607 31.5309L23.3695 35.9184C23.2815 36.23 23.2619 36.557 23.312 36.877C23.362 37.1969 23.4805 37.5023 23.6594 37.7722C23.8383 38.0421 24.0734 38.2703 24.3485 38.441C24.6237 38.6118 24.9324 38.7211 25.2537 38.7616L27.6162 39.059C28.0472 39.1168 28.4856 39.047 28.8772 38.8582C29.2689 38.6693 29.5965 38.3697 29.8196 37.9965L31.3726 35.443C31.5137 35.195 31.7236 34.9933 31.977 34.8622C32.2304 34.7311 32.5164 34.6763 32.8004 34.7045L33.9716 34.8079C34.2316 34.8205 34.4818 34.9103 34.6905 35.0659L40.3611 39.317C39.6712 39.6287 39.0861 40.1331 38.6762 40.7696C38.2663 41.4061 38.0491 42.1475 38.0507 42.9045C38.0507 42.9803 38.0535 43.0556 38.0576 43.1308C37.5223 43.0988 36.9861 43.1768 36.4821 43.36C35.9781 43.5431 35.5169 43.8275 35.1269 44.1956C34.737 44.5637 34.4265 45.0078 34.2146 45.5004C34.0028 45.9931 33.894 46.5239 33.8951 47.0601C33.8951 47.136 33.8979 47.2113 33.902 47.2864C33.1981 47.2454 32.4961 47.3937 31.869 47.7158C31.7994 47.633 31.7264 47.5532 31.6501 47.4766C31.2574 47.0838 30.7858 46.7786 30.2666 46.5813C29.7473 46.3841 29.1921 46.2991 28.6376 46.3321C28.6418 46.2571 28.6445 46.1821 28.6445 46.1059C28.6457 45.5697 28.5371 45.0389 28.3255 44.5462C28.1138 44.0535 27.8036 43.6094 27.4138 43.2411C27.024 42.8729 26.563 42.5883 26.0591 42.405C25.5552 42.2216 25.0191 42.1434 24.4838 42.175C24.5155 41.6398 24.4374 41.1038 24.2541 40.6C24.0709 40.0961 23.7865 39.6351 23.4184 39.2453C23.0503 38.8555 22.6063 38.5452 22.1138 38.3334C21.6213 38.1216 21.0906 38.0129 20.5545 38.0139C20.0373 38.0119 19.5248 38.1125 19.0468 38.3099C18.5687 38.5073 18.1346 38.7976 17.7695 39.1639L14.2593 42.675L10.1671 40.2786L16.5813 29.1686L23.6416 29.0875ZM10.6085 23.2393L15.9237 26.3079L7.6811 40.5844L2.36597 37.5156L10.6085 23.2393ZM32 24.0986C34.3178 24.0987 36.5835 23.4114 38.5107 22.1237C40.4378 20.836 41.9399 19.0058 42.8269 16.8645C43.7139 14.7231 43.946 12.3668 43.4938 10.0936C43.0417 7.82034 41.9255 5.73223 40.2866 4.0933C38.6477 2.45438 36.5596 1.33825 34.2864 0.886063C32.0131 0.433877 29.6569 0.665943 27.5155 1.55291C25.3742 2.43988 23.5439 3.94192 22.2562 5.86908C20.9685 7.79624 20.2812 10.062 20.2812 12.3798C20.2848 15.4867 21.5205 18.4654 23.7175 20.6623C25.9144 22.8592 28.893 24.0951 32 24.0986ZM32 2.66113C33.9222 2.6611 35.8013 3.23109 37.3995 4.299C38.9978 5.36692 40.2435 6.8848 40.9791 8.66069C41.7148 10.4366 41.9072 12.3907 41.5322 14.276C41.1572 16.1613 40.2316 17.8931 38.8724 19.2523C37.5132 20.6115 35.7814 21.5371 33.8961 21.9121C32.0108 22.2871 30.0567 22.0947 28.2808 21.359C26.5049 20.6234 24.987 19.3777 23.9191 17.7794C22.8512 16.1812 22.2812 14.3021 22.2812 12.3799C22.2841 9.80319 23.309 7.33286 25.131 5.51086C26.953 3.68885 29.4233 2.66407 32 2.66113ZM27.5515 12.4269C27.3955 12.2123 27.3312 11.9446 27.3727 11.6827C27.4141 11.4207 27.5579 11.1859 27.7725 11.03C27.987 10.8741 28.2547 10.8098 28.5167 10.8512C28.7786 10.8926 29.0134 11.0365 29.1693 11.251L30.7 13.3575L35.7953 9.1835C36.0007 9.01746 36.2634 8.93939 36.5262 8.96636C36.7889 8.99333 37.0303 9.12313 37.1976 9.32743C37.365 9.53174 37.4448 9.79396 37.4195 10.0568C37.3942 10.3197 37.266 10.562 37.0627 10.7306L31.1476 15.5761C31.0422 15.6624 30.9204 15.7263 30.7895 15.7638C30.6585 15.8014 30.5213 15.8118 30.3863 15.7944C30.2512 15.777 30.1211 15.7322 30.0039 15.6628C29.8868 15.5933 29.785 15.5007 29.705 15.3905L27.5515 12.4269Z" fill="url(#paint0_linear_1_2763)"/>
<defs>
<linearGradient id="paint0_linear_1_2763" x1="0.97959" y1="28.2152" x2="63.9999" y2="28.2152" gradientUnits="userSpaceOnUse">
<stop stop-color="#2950B8"/>
<stop offset="0.994819" stop-color="#B30ACE"/>
</linearGradient>
</defs>
</svg>
