<svg width="56" height="56" viewBox="0 0 56 56" fill="none" xmlns="http://www.w3.org/2000/svg">
<g clip-path="url(#clip0_1_2769)">
<path d="M49.5837 55.9999H6.41729C2.87762 55.9999 0.000976562 53.1228 0.000976562 49.5836V15.7503C0.000976562 12.2106 2.87751 9.33397 6.41729 9.33397H14.584C15.55 9.33397 16.334 10.118 16.334 11.084C16.334 12.0499 15.55 12.8339 14.584 12.8339H6.41729C4.80949 12.8339 3.50094 14.1426 3.50094 15.7503V49.5836C3.50094 51.1908 4.8096 52.4999 6.41729 52.4999H49.5837C51.1915 52.4999 52.5005 51.1908 52.5005 49.5836V29.7501C52.5005 28.7842 53.2845 28.0002 54.2504 28.0002C55.2164 28.0002 56.0004 28.7842 56.0004 29.7501V49.5836C56.0004 53.1229 53.1233 55.9999 49.5837 55.9999Z" fill="url(#paint0_linear_1_2769)"/>
<path d="M15.7483 37.3034C15.6185 37.304 15.4892 37.2882 15.3633 37.2564C14.5726 37.0722 14.001 36.3955 14.001 35.5837V32.0837C14.001 19.5399 24.2069 9.33396 36.7508 9.33396H37.3339V1.75041C37.3342 1.40127 37.4387 1.06017 37.6341 0.770824C37.8295 0.481483 38.1069 0.257094 38.4306 0.126428C38.7541 -0.0037999 39.1091 -0.03429 39.4501 0.038879C39.791 0.112048 40.1023 0.285531 40.3438 0.537018L55.5105 16.2869C56.1638 16.9637 56.1638 18.0368 55.5105 18.7137L40.3438 34.4635C39.8491 34.9792 39.086 35.1381 38.4306 34.8741C38.1069 34.7434 37.8295 34.519 37.6341 34.2297C37.4387 33.9404 37.3342 33.5992 37.3339 33.2501V25.667H34.562C27.2216 25.667 20.6249 29.7454 17.3445 36.3091C17.0433 36.9159 16.411 37.3034 15.7483 37.3034ZM36.7508 12.8339C26.9506 12.8339 18.8356 20.1953 17.6479 29.68C21.8895 24.9484 27.9726 22.167 34.562 22.167H39.0839C40.0499 22.167 40.8339 22.951 40.8339 23.917V28.9101L51.8213 17.5003L40.8339 6.09037V11.0839C40.8339 12.0499 40.0499 12.8339 39.0839 12.8339H36.7508Z" fill="url(#paint1_linear_1_2769)"/>
</g>
<defs>
<linearGradient id="paint0_linear_1_2769" x1="0.85811" y1="30.5241" x2="56.0004" y2="30.5241" gradientUnits="userSpaceOnUse">
<stop stop-color="#2950B8"/>
<stop offset="0.994819" stop-color="#B30ACE"/>
</linearGradient>
<linearGradient id="paint1_linear_1_2769" x1="14.6438" y1="16.9388" x2="56.0004" y2="16.9388" gradientUnits="userSpaceOnUse">
<stop stop-color="#2950B8"/>
<stop offset="0.994819" stop-color="#B30ACE"/>
</linearGradient>
<clipPath id="clip0_1_2769">
<rect width="56" height="56" fill="white"/>
</clipPath>
</defs>
</svg>
