<svg width="56" height="56" viewBox="0 0 56 56" fill="none" xmlns="http://www.w3.org/2000/svg">
<path d="M25.2822 37.035C25.0195 37.0354 24.7593 36.9838 24.5166 36.8832C24.274 36.7827 24.0536 36.6351 23.8682 36.449L15.8152 28.396C15.6241 28.2115 15.4718 27.9908 15.367 27.7468C15.2621 27.5028 15.207 27.2404 15.2047 26.9748C15.2024 26.7092 15.253 26.4459 15.3535 26.2001C15.4541 25.9543 15.6026 25.731 15.7904 25.5432C15.9782 25.3554 16.2015 25.2069 16.4473 25.1063C16.6931 25.0058 16.9564 24.9552 17.222 24.9575C17.4875 24.9598 17.75 25.015 17.994 25.1198C18.238 25.2246 18.4587 25.377 18.6432 25.568L26.6962 33.621C26.9758 33.9007 27.1662 34.257 27.2433 34.6449C27.3205 35.0328 27.2809 35.4349 27.1295 35.8003C26.9782 36.1657 26.7219 36.478 26.3931 36.6978C26.0643 36.9176 25.6777 37.0349 25.2822 37.035Z" fill="url(#paint0_linear_1_2778)"/>
<path d="M25.2818 37.035C24.8863 37.0349 24.4997 36.9176 24.1709 36.6978C23.8421 36.478 23.5858 36.1657 23.4344 35.8003C23.2831 35.4349 23.2435 35.0328 23.3206 34.6449C23.3978 34.257 23.5882 33.9007 23.8678 33.621L39.3548 18.135C39.5393 17.944 39.76 17.7916 40.004 17.6868C40.248 17.582 40.5104 17.5268 40.776 17.5245C41.0416 17.5222 41.3049 17.5728 41.5507 17.6733C41.7965 17.7739 42.0198 17.9224 42.2076 18.1102C42.3954 18.298 42.5439 18.5213 42.6444 18.7671C42.745 19.0129 42.7956 19.2762 42.7933 19.5418C42.791 19.8073 42.7358 20.0698 42.631 20.3138C42.5262 20.5578 42.3738 20.7785 42.1828 20.963L26.6958 36.449C26.5105 36.6352 26.2901 36.7828 26.0474 36.8834C25.8047 36.984 25.5445 37.0355 25.2818 37.035Z" fill="url(#paint1_linear_1_2778)"/>
<path d="M28.054 55.975C22.305 55.975 16.591 54.193 11.966 50.956C4.00297 45.386 -0.560034 35.898 0.0569658 26.196C0.667966 16.591 6.33797 7.80499 14.855 3.26999C18.841 1.14699 23.38 0.0249939 27.982 0.0249939C33.196 0.0249939 38.257 1.43899 42.618 4.11299C50.872 9.17599 56 18.328 56 27.999C56 29.194 55.924 30.397 55.773 31.576C54.558 41.094 48.368 49.487 39.617 53.482C36.045 55.113 32.046 55.975 28.054 55.975ZM27.981 4.02499C24.033 4.02499 20.144 4.98499 16.734 6.80099C9.43296 10.689 4.57197 18.219 4.04797 26.45C3.51897 34.768 7.43096 42.902 14.258 47.679C18.217 50.45 23.116 51.975 28.052 51.975H28.053C31.477 51.975 34.9 51.239 37.954 49.844C45.456 46.419 50.763 39.226 51.804 31.071C51.933 30.059 51.998 29.026 51.998 28C51.998 19.71 47.602 11.864 40.525 7.52399C36.794 5.23499 32.457 4.02499 27.981 4.02499Z" fill="url(#paint2_linear_1_2778)"/>
<defs>
<linearGradient id="paint0_linear_1_2778" x1="15.3894" y1="30.4416" x2="27.2817" y2="30.4416" gradientUnits="userSpaceOnUse">
<stop stop-color="#2950B8"/>
<stop offset="0.994819" stop-color="#B30ACE"/>
</linearGradient>
<linearGradient id="paint1_linear_1_2778" x1="23.5809" y1="26.3838" x2="42.7934" y2="26.3838" gradientUnits="userSpaceOnUse">
<stop stop-color="#2950B8"/>
<stop offset="0.994819" stop-color="#B30ACE"/>
</linearGradient>
<linearGradient id="paint2_linear_1_2778" x1="0.858584" y1="25.4309" x2="56" y2="25.4309" gradientUnits="userSpaceOnUse">
<stop stop-color="#2950B8"/>
<stop offset="0.994819" stop-color="#B30ACE"/>
</linearGradient>
</defs>
</svg>
