<svg width="581" height="508" viewBox="0 0 581 508" fill="none" xmlns="http://www.w3.org/2000/svg">
<rect width="581" height="508" rx="30" fill="white" fill-opacity="0.05"/>
<path opacity="0.6" fill-rule="evenodd" clip-rule="evenodd" d="M70 206.879L141.104 169.584L212.271 206.879L141.104 244.226L70 206.879Z" fill="white" fill-opacity="0.1"/>
<path opacity="0.5" fill-rule="evenodd" clip-rule="evenodd" d="M216.599 127.732L287.766 90.385L358.87 127.732L287.766 165.079L216.599 127.732Z" fill="white" fill-opacity="0.1"/>
<path opacity="0.7" fill-rule="evenodd" clip-rule="evenodd" d="M362.562 206.67L433.665 169.322L504.832 206.67L433.665 244.017L362.562 206.67Z" fill="#501970"/>
<path fill-rule="evenodd" clip-rule="evenodd" d="M369.628 375.492L440.731 338.144L511.899 375.492L440.731 412.839L369.628 375.492Z" fill="white" fill-opacity="0.1"/>
<path fill-rule="evenodd" clip-rule="evenodd" d="M216.599 454.638L287.703 417.291L358.87 454.638L287.703 491.986L216.599 454.638Z" fill="white" fill-opacity="0.1"/>
<path opacity="0.8" fill-rule="evenodd" clip-rule="evenodd" d="M73.8193 367.896L144.923 330.549L216.09 367.896L144.923 405.191L73.8193 367.896Z" fill="white" fill-opacity="0.1"/>
<path opacity="0.3" d="M222.901 309.911L404.192 214.422L405.084 214.893L223.856 310.383L222.901 309.911ZM235.632 316.511L236.523 316.983L417.815 221.493L416.924 221.022L235.632 316.511ZM248.554 323.268L249.445 323.74L430.737 228.25L429.846 227.779L248.554 323.268ZM261.603 330.078L262.495 330.549L443.786 235.06L442.895 234.588L261.603 330.078ZM278.854 336.206L280.255 336.416L456.454 243.598L455.817 243.021L278.854 336.206ZM181.588 288.383L182.479 288.854L363.771 193.365L362.88 192.893L181.588 288.383ZM140.339 266.854L141.23 267.326L322.522 171.836L321.631 171.365L140.339 266.854ZM195.147 295.454L196.038 295.926L377.33 200.436L376.439 199.965L195.147 295.454ZM154.725 274.345L155.617 274.816L336.908 179.379L336.017 178.908L154.725 274.345ZM117.678 251.507L118.06 252.24L294.832 159.16L293.559 158.898L117.678 251.507ZM208.069 302.159L208.96 302.63L390.252 207.141L389.361 206.669L208.069 302.159ZM167.648 281.102L168.539 281.573L349.83 186.084L348.939 185.612L167.648 281.102ZM127.226 259.993L128.117 260.464L309.345 165.027L308.454 164.556L127.226 259.993ZM351.931 310.121L352.822 309.649L171.531 214.16L170.639 214.631L351.931 310.121ZM339.264 316.721L340.155 316.249L158.863 220.76L157.972 221.231L339.264 316.721ZM326.341 323.425L327.233 322.954L145.941 227.517L145.05 227.988L326.341 323.425ZM313.101 330.235L314.056 329.763L132.828 234.326L131.937 234.798L313.101 330.235ZM295.405 336.049L296.741 335.787L120.097 242.812L119.524 243.44L295.405 336.049ZM392.416 289.011L393.307 288.54L211.952 193.051L211.061 193.522L392.416 289.011ZM434.684 266.959L435.575 266.488L254.283 170.998L253.392 171.47L434.684 266.959ZM379.685 295.664L380.576 295.192L199.284 199.703L198.393 200.174L379.685 295.664ZM420.17 274.554L421.061 274.083L239.706 178.594L238.815 179.065L420.17 274.554ZM459.318 252.817L459.764 252.083L282.419 158.689L281.082 158.898L459.318 252.817ZM366.763 302.368L367.654 301.897L186.362 206.408L185.471 206.879L366.763 302.368ZM407.248 281.311L408.139 280.84L226.847 185.298L225.956 185.77L407.248 281.311ZM447.733 260.202L448.624 259.731L267.269 164.241L266.378 164.713L447.733 260.202Z" fill="#9B5CC4"/>
<path opacity="0.7" d="M126.59 230.764L265.487 158.322C273.126 154.394 280.446 152.456 287.894 152.561C295.342 152.665 302.726 154.761 310.556 158.794L445.57 229.193C454.163 233.645 461.865 238.726 465.303 243.964C469.377 250.145 468.295 256.274 457.982 261.617L320.677 333.168C310.365 338.563 300.307 341.863 290.059 342.492C279.746 343.12 269.434 340.973 258.804 335.421L124.49 265.44C119.143 262.664 115.323 259.731 112.968 256.693C110.995 254.126 110.04 251.507 110.104 248.836C110.167 246.164 111.186 243.545 113.095 241.031C115.896 237.417 120.352 234.012 126.59 230.764ZM269.243 163.194L130.346 235.636C124.999 238.412 121.243 241.241 119.079 244.017C117.806 245.693 117.169 247.264 117.106 248.836C117.106 250.355 117.679 251.979 118.888 253.55C120.67 255.907 123.79 258.212 128.245 260.517L262.559 330.497C271.853 335.316 280.765 337.201 289.613 336.678C298.588 336.154 307.564 333.116 316.921 328.244L454.227 256.745C460.465 253.498 461.356 250.04 459.128 246.636C456.327 242.393 449.516 237.941 441.814 233.96L306.8 163.665C300.052 160.156 293.814 158.375 287.767 158.322C281.72 158.218 275.672 159.841 269.243 163.194Z" fill="#9D79C6"/>
<path opacity="0.7" d="M137.284 243.545L266.187 176.341C273.253 172.675 280.064 170.894 286.939 170.998C293.814 171.103 300.689 173.041 307.945 176.76L433.284 242.079C441.241 246.217 448.37 250.931 451.617 255.802C455.372 261.512 454.354 267.221 444.869 272.197L317.43 338.563C307.882 343.539 298.524 346.63 289.04 347.206C279.491 347.782 269.879 345.792 260.013 340.659L135.375 275.707C130.409 273.14 126.845 270.416 124.68 267.588C122.834 265.231 122.007 262.769 122.007 260.255C122.07 257.793 123.025 255.383 124.808 252.974C127.354 249.726 131.492 246.531 137.284 243.545ZM269.625 180.846L140.722 248.05C135.756 250.617 132.255 253.236 130.282 255.802C129.136 257.321 128.5 258.84 128.5 260.307C128.5 261.721 129.009 263.188 130.155 264.707C131.81 266.855 134.674 269.054 138.812 271.202L263.45 336.154C272.044 340.659 280.382 342.387 288.594 341.863C296.933 341.339 305.272 338.563 313.993 334.059L441.432 267.693C447.224 264.655 447.988 261.459 445.951 258.317C443.341 254.336 437.039 250.25 429.91 246.583L304.572 181.265C298.333 178.017 292.541 176.341 286.939 176.289C281.274 176.236 275.672 177.755 269.625 180.846Z" fill="#9D79C6"/>
<path opacity="0.7" d="M151.288 257.112L268.223 196.141C274.653 192.841 280.827 191.217 287.065 191.27C293.304 191.322 299.542 193.103 306.162 196.508L419.851 255.75C427.108 259.469 433.537 263.764 436.466 268.216C439.903 273.402 438.948 278.588 430.355 283.092L314.756 343.33C306.098 347.835 297.632 350.663 288.975 351.187C280.318 351.711 271.597 349.93 262.622 345.268L149.569 286.235C145.049 283.878 141.803 281.416 139.83 278.85C138.175 276.702 137.347 274.502 137.411 272.197C137.474 269.945 138.302 267.745 139.957 265.597C142.248 262.717 146.068 259.836 151.288 257.112ZM271.342 200.227L154.407 261.197C149.887 263.555 146.704 265.912 144.922 268.269C143.84 269.683 143.331 271.045 143.267 272.355C143.267 273.664 143.713 274.974 144.795 276.335C146.322 278.274 148.932 280.264 152.688 282.202L265.741 341.13C273.57 345.216 281.082 346.787 288.529 346.316C296.041 345.844 303.68 343.33 311.573 339.244L427.172 279.007C432.455 276.283 433.155 273.35 431.309 270.521C428.954 266.907 423.225 263.24 416.732 259.836L302.979 200.593C297.314 197.66 292.094 196.141 286.938 196.089C281.909 196.036 276.817 197.398 271.342 200.227Z" fill="#9D79C6"/>
<path fill-rule="evenodd" clip-rule="evenodd" d="M140.722 170.789V160.994L186.936 184.46V194.255L140.722 170.789Z" fill="#E0E0E0"/>
<path fill-rule="evenodd" clip-rule="evenodd" d="M193.11 191.06V181.213L140.722 208.503V218.35L193.11 191.06Z" fill="#A1A1A1"/>
<path fill-rule="evenodd" clip-rule="evenodd" d="M140.722 170.789V160.994L94.8262 184.565V194.412L140.722 170.789Z" fill="#BDBDBD"/>
<path fill-rule="evenodd" clip-rule="evenodd" d="M88.3965 191.06V181.213L140.722 208.503V218.35L88.3965 191.06Z" fill="#EDEDED"/>
<path fill-rule="evenodd" clip-rule="evenodd" d="M88.3965 181.213L140.785 153.922L193.174 181.213L140.785 208.503L88.3965 181.213ZM101.446 181.213L140.785 160.994L180.124 181.213L140.785 201.431L101.446 181.213Z" fill="#D4D4D4"/>
<path fill-rule="evenodd" clip-rule="evenodd" d="M98.709 136.375L140.722 114.27L182.798 136.375L140.722 158.427L98.709 136.375Z" fill="#C2C2C2"/>
<path fill-rule="evenodd" clip-rule="evenodd" d="M140.722 158.427L182.798 136.375V169.951L140.722 192.003V158.427Z" fill="#949494"/>
<path fill-rule="evenodd" clip-rule="evenodd" d="M104.564 136.165L109.275 133.703L113.986 136.165L109.275 138.68L104.564 136.165Z" fill="#792EED"/>
<path fill-rule="evenodd" clip-rule="evenodd" d="M135.438 152.299L140.149 149.784L144.86 152.299L140.149 154.76L135.438 152.299Z" fill="#792EED"/>
<path fill-rule="evenodd" clip-rule="evenodd" d="M135.438 120.085L140.149 117.623L144.86 120.085L140.149 122.547L135.438 120.085Z" fill="#792EED"/>
<path fill-rule="evenodd" clip-rule="evenodd" d="M166.312 136.165L171.022 133.703L175.733 136.165L171.022 138.68L166.312 136.165Z" fill="#792EED"/>
<path fill-rule="evenodd" clip-rule="evenodd" d="M113.986 136.165L140.149 122.547L166.311 136.165L140.149 149.784L113.986 136.165ZM120.543 136.165L140.149 126.056L159.755 136.165L140.149 146.275L120.543 136.165Z" fill="#792EED"/>
<path fill-rule="evenodd" clip-rule="evenodd" d="M150.652 165.813L174.268 153.399C176.051 152.456 177.642 152.403 177.642 154.237V156.437C177.642 157.799 175.987 158.689 174.65 159.422L153.389 170.579C150.779 171.941 147.66 173.46 147.66 170.998V169.584C147.66 167.437 148.488 166.965 150.652 165.813Z" fill="#792EED"/>
<path d="M150.143 165.132L173.76 152.718C174.651 152.246 175.606 151.932 176.37 151.932C176.752 151.932 177.07 151.984 177.388 152.141C177.706 152.299 178.025 152.456 178.216 152.77C178.47 153.137 178.661 153.608 178.661 154.237V156.437C178.661 157.327 178.152 158.113 177.388 158.741C176.752 159.265 175.924 159.737 175.224 160.103L153.963 171.26C152.562 171.994 151.098 172.727 149.825 172.989C147.979 173.408 146.706 172.989 146.706 170.998V169.584C146.706 168.327 146.961 167.541 147.597 166.86C148.106 166.232 148.934 165.76 150.143 165.132ZM174.778 154.079L151.162 166.494C150.143 167.017 149.507 167.384 149.125 167.803C148.807 168.17 148.616 168.694 148.616 169.584V170.998C148.616 171.47 148.87 171.522 149.316 171.47C150.271 171.26 151.671 170.579 152.881 169.898L174.142 158.741C174.778 158.427 175.478 158.008 175.988 157.589C176.433 157.222 176.688 156.856 176.688 156.437V154.237C176.688 153.922 176.624 153.765 176.561 153.66L176.497 153.608C176.433 153.608 176.433 153.608 176.306 153.608C175.924 153.608 175.351 153.765 174.778 154.079Z" fill="#393185"/>
<path fill-rule="evenodd" clip-rule="evenodd" d="M287.384 254.702V244.907L333.598 268.374V278.169L287.384 254.702Z" fill="#E0E0E0"/>
<path fill-rule="evenodd" clip-rule="evenodd" d="M339.772 274.921V265.126L287.384 292.416V302.211L339.772 274.921Z" fill="#A1A1A1"/>
<path fill-rule="evenodd" clip-rule="evenodd" d="M287.385 254.702V244.907L241.489 268.478V278.326L287.385 254.702Z" fill="#BDBDBD"/>
<path fill-rule="evenodd" clip-rule="evenodd" d="M235.059 274.921V265.126L287.384 292.416V302.211L235.059 274.921Z" fill="#EDEDED"/>
<path fill-rule="evenodd" clip-rule="evenodd" d="M235.059 265.126L287.448 237.836L339.837 265.126L287.448 292.416L235.059 265.126ZM248.109 265.126L287.448 244.907L326.787 265.126L287.448 285.345L248.109 265.126Z" fill="#D4D4D4"/>
<path fill-rule="evenodd" clip-rule="evenodd" d="M287.384 242.34L245.372 220.236V253.864L287.384 275.916V242.34Z" fill="#DEDEDE"/>
<path fill-rule="evenodd" clip-rule="evenodd" d="M281.528 243.65L249.7 226.941V252.031L281.528 268.688V243.65Z" fill="#393185"/>
<path fill-rule="evenodd" clip-rule="evenodd" d="M245.372 220.236L287.384 198.184L329.461 220.236L287.384 242.341L245.372 220.236Z" fill="#C2C2C2"/>
<path fill-rule="evenodd" clip-rule="evenodd" d="M260.267 220.236L287.384 205.989L314.565 220.236L287.384 234.536L260.267 220.236Z" fill="#393185"/>
<path fill-rule="evenodd" clip-rule="evenodd" d="M287.384 242.34L329.46 220.236V253.864L287.384 275.916V242.34Z" fill="#949494"/>
<path fill-rule="evenodd" clip-rule="evenodd" d="M250.782 220.236L255.556 217.774L260.267 220.236L255.556 222.75L250.782 220.236Z" fill="#393185"/>
<path fill-rule="evenodd" clip-rule="evenodd" d="M282.674 236.998L287.385 234.536L292.159 236.998L287.385 239.46L282.674 236.998Z" fill="#393185"/>
<path fill-rule="evenodd" clip-rule="evenodd" d="M282.674 203.527L287.385 201.012L292.159 203.527L287.385 205.988L282.674 203.527Z" fill="#393185"/>
<path fill-rule="evenodd" clip-rule="evenodd" d="M314.566 220.236L319.276 217.774L324.051 220.236L319.276 222.75L314.566 220.236Z" fill="#393185"/>
<path fill-rule="evenodd" clip-rule="evenodd" d="M287.449 93.5278V83.7327L333.599 107.199V116.994L287.449 93.5278Z" fill="#E0E0E0"/>
<path fill-rule="evenodd" clip-rule="evenodd" d="M339.774 113.747V103.951L287.449 131.242V141.037L339.774 113.747Z" fill="#A1A1A1"/>
<path fill-rule="evenodd" clip-rule="evenodd" d="M287.448 93.5278V83.7327L241.489 107.304V117.151L287.448 93.5278Z" fill="#BDBDBD"/>
<path fill-rule="evenodd" clip-rule="evenodd" d="M235.059 113.747V103.951L287.448 131.242V141.037L235.059 113.747Z" fill="#EDEDED"/>
<path fill-rule="evenodd" clip-rule="evenodd" d="M235.059 103.951L287.448 76.6613L339.837 103.951L287.448 131.242L235.059 103.951ZM248.109 103.951L287.448 83.7326L326.787 103.951L287.448 124.17L248.109 103.951Z" fill="#D4D4D4"/>
<path fill-rule="evenodd" clip-rule="evenodd" d="M287.448 81.1661L245.372 59.0615V92.6897L287.448 114.742V81.1661Z" fill="#DEDEDE"/>
<path fill-rule="evenodd" clip-rule="evenodd" d="M245.372 59.0614L287.448 37.0093L329.461 59.0614L287.448 81.166L245.372 59.0614Z" fill="#C2C2C2"/>
<path fill-rule="evenodd" clip-rule="evenodd" d="M287.449 81.1661L329.462 59.0615V92.6897L287.449 114.742V81.1661Z" fill="#949494"/>
<path fill-rule="evenodd" clip-rule="evenodd" d="M251.229 58.9043L255.939 56.4424L260.713 58.9043L255.939 61.3661L251.229 58.9043Z" fill="#792EED"/>
<path fill-rule="evenodd" clip-rule="evenodd" d="M282.101 75.0375L286.812 72.5232L291.522 75.0375L286.812 77.4993L282.101 75.0375Z" fill="#792EED"/>
<path fill-rule="evenodd" clip-rule="evenodd" d="M282.101 42.8236L286.812 40.3093L291.522 42.8236L286.812 45.2855L282.101 42.8236Z" fill="#792EED"/>
<path fill-rule="evenodd" clip-rule="evenodd" d="M312.974 58.9043L317.685 56.4424L322.395 58.9043L317.685 61.3661L312.974 58.9043Z" fill="#792EED"/>
<path fill-rule="evenodd" clip-rule="evenodd" d="M260.713 58.9043L286.875 45.2854L313.038 58.9043L286.875 72.5232L260.713 58.9043ZM267.206 58.9043L286.812 48.7949L306.481 58.9043L286.875 69.0137L267.206 58.9043Z" fill="#792EED"/>
<path fill-rule="evenodd" clip-rule="evenodd" d="M277.072 89.2326L253.455 76.8184C251.673 75.8756 250.082 75.8232 250.082 77.6565V79.8565C250.082 81.2184 251.737 82.1088 253.073 82.8421L274.334 93.9992C276.944 95.3611 280.063 96.8801 280.063 94.4182V93.0039C280.063 90.8564 279.236 90.3849 277.072 89.2326Z" fill="#792EED"/>
<path d="M276.563 89.9136L252.947 77.4994C252.31 77.1851 251.801 76.9756 251.419 76.9756C251.355 76.9756 251.292 76.9756 251.228 76.9756C251.228 76.9756 251.164 76.9756 251.164 77.028C251.101 77.1327 251.037 77.3423 251.037 77.6042V79.8041C251.037 80.2232 251.355 80.6422 251.737 80.9565C252.247 81.3756 252.947 81.7946 253.583 82.1089L274.844 93.2659C276.054 93.8945 277.454 94.5754 278.409 94.8373C278.791 94.9421 279.109 94.8373 279.109 94.3659V92.9516C279.109 92.0612 278.982 91.5374 278.6 91.1707C278.218 90.804 277.518 90.4374 276.563 89.9136ZM253.965 76.1899L277.582 88.604C278.791 89.2326 279.555 89.6517 280.128 90.3326C280.701 91.0135 281.019 91.7993 281.019 93.0564V94.4707C281.019 96.4611 279.746 96.8802 277.9 96.4611C276.69 96.1992 275.163 95.4135 273.762 94.7326L252.565 83.5231C251.865 83.1565 251.037 82.6851 250.401 82.1613C249.637 81.5327 249.127 80.7994 249.127 79.8565V77.6565C249.127 77.028 249.255 76.5566 249.573 76.1899C249.764 75.928 250.082 75.7185 250.401 75.5613C250.719 75.4566 251.037 75.3518 251.419 75.3518C252.183 75.4042 253.074 75.7185 253.965 76.1899Z" fill="#393185"/>
<path fill-rule="evenodd" clip-rule="evenodd" d="M297.315 88.5517L320.931 76.1375C322.714 75.1946 324.305 75.1423 324.305 76.9756V79.1756C324.305 80.5374 322.65 81.4279 321.313 82.1612L300.052 93.3183C297.442 94.6802 294.323 96.1992 294.323 93.7373V92.323C294.323 90.1754 295.151 89.704 297.315 88.5517Z" fill="#792EED"/>
<path d="M296.806 87.8706L320.422 75.4565C321.313 74.9851 322.268 74.6708 323.032 74.6708C323.414 74.6708 323.732 74.7232 324.05 74.8803C324.369 75.0374 324.687 75.1946 324.878 75.5089C325.132 75.8755 325.323 76.347 325.323 76.9755V79.1755C325.323 80.066 324.814 80.8517 324.05 81.4802C323.414 82.004 322.586 82.4755 321.886 82.8421L300.625 93.9991C299.224 94.7325 297.76 95.4658 296.487 95.7277C294.641 96.1467 293.368 95.7277 293.368 93.7372V92.323C293.368 91.0658 293.623 90.2801 294.259 89.5992C294.769 88.9706 295.596 88.4992 296.806 87.8706ZM321.44 76.8184L297.824 89.2325C296.806 89.7563 296.169 90.123 295.787 90.542C295.469 90.9087 295.278 91.4325 295.278 92.323V93.7372C295.278 94.2087 295.532 94.261 295.978 94.2087C296.933 93.9991 298.333 93.3182 299.543 92.6373L320.804 81.4802C321.44 81.1659 322.141 80.7469 322.65 80.3279C323.095 79.9612 323.35 79.5945 323.35 79.1755V76.9755C323.35 76.6612 323.286 76.5041 323.223 76.3993L323.159 76.347C323.095 76.347 323.095 76.347 322.968 76.347C322.586 76.347 322.013 76.5041 321.44 76.8184Z" fill="#393185"/>
<path fill-rule="evenodd" clip-rule="evenodd" d="M433.666 170.789V160.994L479.816 184.46V194.255L433.666 170.789Z" fill="#E0E0E0"/>
<path fill-rule="evenodd" clip-rule="evenodd" d="M485.991 191.06V181.213L433.666 208.503V218.35L485.991 191.06Z" fill="#A1A1A1"/>
<path fill-rule="evenodd" clip-rule="evenodd" d="M433.666 170.789V160.994L387.706 184.565V194.412L433.666 170.789Z" fill="#BDBDBD"/>
<path fill-rule="evenodd" clip-rule="evenodd" d="M381.277 191.06V181.213L433.666 208.503V218.35L381.277 191.06Z" fill="#EDEDED"/>
<path fill-rule="evenodd" clip-rule="evenodd" d="M381.277 181.213L433.666 153.922L486.054 181.213L433.666 208.503L381.277 181.213ZM394.326 181.213L433.666 160.994L473.005 181.213L433.666 201.431L394.326 181.213Z" fill="#D4D4D4"/>
<path fill-rule="evenodd" clip-rule="evenodd" d="M433.666 158.427L391.589 136.375V169.951L433.666 192.003V158.427Z" fill="#DEDEDE"/>
<path fill-rule="evenodd" clip-rule="evenodd" d="M140.722 158.427L98.709 136.375V169.951L140.722 192.003V158.427Z" fill="#DEDEDE"/>
<path fill-rule="evenodd" clip-rule="evenodd" d="M391.589 136.375L433.666 114.27L475.679 136.375L433.666 158.427L391.589 136.375Z" fill="#C2C2C2"/>
<path fill-rule="evenodd" clip-rule="evenodd" d="M433.666 158.427L475.678 136.375V169.951L433.666 192.003V158.427Z" fill="#949494"/>
<path fill-rule="evenodd" clip-rule="evenodd" d="M397.445 136.165L402.156 133.703L406.93 136.165L402.156 138.68L397.445 136.165Z" fill="#792EED"/>
<path fill-rule="evenodd" clip-rule="evenodd" d="M428.319 152.299L433.029 149.784L437.804 152.299L433.029 154.76L428.319 152.299Z" fill="#792EED"/>
<path fill-rule="evenodd" clip-rule="evenodd" d="M428.319 120.085L433.029 117.623L437.804 120.085L433.029 122.547L428.319 120.085Z" fill="#792EED"/>
<path fill-rule="evenodd" clip-rule="evenodd" d="M459.191 136.165L463.902 133.703L468.676 136.165L463.902 138.68L459.191 136.165Z" fill="#792EED"/>
<path fill-rule="evenodd" clip-rule="evenodd" d="M406.93 136.165L433.093 122.547L459.255 136.165L433.093 149.784L406.93 136.165ZM413.423 136.165L433.029 126.056L452.635 136.165L433.029 146.275L413.423 136.165Z" fill="#792EED"/>
<path fill-rule="evenodd" clip-rule="evenodd" d="M423.289 166.494L399.673 154.08C397.891 153.137 396.299 153.084 396.299 154.918V157.118C396.299 158.479 397.954 159.37 399.291 160.103L420.552 171.26C423.162 172.622 426.281 174.141 426.281 171.679V170.265C426.281 168.117 425.454 167.646 423.289 166.494Z" fill="#792EED"/>
<path d="M422.781 167.175L399.164 154.76C398.528 154.446 398.018 154.237 397.637 154.237C397.573 154.237 397.509 154.237 397.446 154.237C397.446 154.237 397.382 154.237 397.382 154.289C397.318 154.394 397.255 154.603 397.255 154.865V157.065C397.255 157.484 397.573 157.903 397.955 158.218C398.464 158.637 399.164 159.056 399.801 159.37L421.062 170.527C422.271 171.156 423.672 171.837 424.627 172.098C425.008 172.203 425.327 172.098 425.327 171.627V170.213C425.327 169.322 425.199 168.798 424.818 168.432C424.436 168.065 423.735 167.698 422.781 167.175ZM400.183 153.451L423.799 165.865C425.008 166.494 425.772 166.913 426.345 167.594C426.918 168.275 427.236 169.06 427.236 170.317V171.732C427.236 173.722 425.963 174.141 424.117 173.722C422.908 173.46 421.38 172.675 419.98 171.994L398.719 160.837C398.018 160.47 397.191 159.999 396.554 159.475C395.79 158.846 395.281 158.113 395.281 157.17V154.97C395.281 154.341 395.409 153.87 395.727 153.503C395.918 153.241 396.236 153.032 396.554 152.875C396.873 152.77 397.191 152.665 397.573 152.665C398.4 152.665 399.292 152.98 400.183 153.451Z" fill="#393185"/>
<path fill-rule="evenodd" clip-rule="evenodd" d="M443.532 165.813L467.148 153.399C468.931 152.456 470.522 152.403 470.522 154.237V156.437C470.522 157.799 468.867 158.689 467.53 159.422L446.269 170.579C443.659 171.941 440.54 173.46 440.54 170.998V169.584C440.54 167.437 441.368 166.965 443.532 165.813Z" fill="#792EED"/>
<path d="M443.023 165.132L466.639 152.718C467.53 152.246 468.485 151.932 469.249 151.932C469.631 151.932 469.949 151.984 470.268 152.141C470.586 152.299 470.904 152.456 471.095 152.77C471.35 153.137 471.541 153.608 471.541 154.237V156.437C471.541 157.327 471.031 158.113 470.268 158.741C469.631 159.265 468.803 159.737 468.103 160.103L446.842 171.26C445.442 171.994 443.978 172.727 442.705 172.989C440.859 173.408 439.585 172.989 439.585 170.998V169.584C439.585 168.327 439.84 167.541 440.477 166.86C441.05 166.232 441.813 165.76 443.023 165.132ZM467.658 154.079L444.041 166.494C443.023 167.017 442.386 167.384 442.004 167.803C441.686 168.17 441.495 168.694 441.495 169.584V170.998C441.495 171.47 441.75 171.522 442.195 171.47C443.15 171.26 444.551 170.579 445.76 169.898L467.021 158.741C467.658 158.427 468.358 158.008 468.867 157.589C469.313 157.222 469.567 156.856 469.567 156.437V154.237C469.567 153.922 469.504 153.765 469.44 153.66L469.376 153.608C469.313 153.608 469.313 153.608 469.185 153.608C468.803 153.608 468.294 153.765 467.658 154.079Z" fill="#393185"/>
<path fill-rule="evenodd" clip-rule="evenodd" d="M198.521 213.741C198.712 213.479 198.903 213.269 199.094 213.008L202.977 215.05C202.786 215.312 202.595 215.522 202.404 215.784C201.131 215.103 199.857 214.422 198.521 213.741ZM192.473 209.603L196.356 211.646C196.165 211.855 196.038 212.065 195.847 212.327L191.964 210.284C192.155 210.022 192.282 209.812 192.473 209.603ZM185.599 205.989L189.482 208.031C189.291 208.241 189.163 208.45 188.972 208.66L185.089 206.617C185.28 206.408 185.408 206.198 185.599 205.989ZM211.57 219.555L215.453 221.598C215.262 221.86 215.071 222.069 214.88 222.331C213.607 221.65 212.27 220.969 210.997 220.288C211.188 220.026 211.379 219.765 211.57 219.555ZM238.178 233.541L242.061 235.583C241.87 235.845 241.679 236.055 241.488 236.317C240.215 235.636 238.878 234.955 237.605 234.274C237.796 234.064 237.987 233.803 238.178 233.541ZM231.558 230.136L235.441 232.179C235.25 232.388 235.123 232.598 234.932 232.86L231.049 230.817C231.24 230.555 231.367 230.398 231.558 230.136ZM204.95 216.15L208.833 218.193C208.642 218.403 208.515 218.612 208.324 218.874L204.441 216.831C204.632 216.569 204.759 216.36 204.95 216.15ZM218.063 223.065L221.946 225.107C221.755 225.317 221.628 225.526 221.437 225.788L217.554 223.745C217.745 223.484 217.936 223.274 218.063 223.065ZM224.683 226.522L228.566 228.564C228.375 228.774 228.248 228.984 228.057 229.193L224.174 227.15C224.365 226.941 224.492 226.731 224.683 226.522Z" fill="white"/>
<path fill-rule="evenodd" clip-rule="evenodd" d="M340.665 135.537C340.856 135.275 341.047 135.065 341.238 134.804L345.184 136.794C344.993 137.056 344.802 137.265 344.611 137.527C343.275 136.899 342.002 136.218 340.665 135.537ZM334.49 131.504L338.437 133.442C338.246 133.651 338.119 133.861 337.928 134.123L333.981 132.132C334.172 131.975 334.299 131.766 334.49 131.504ZM327.488 128.047L331.435 130.037C331.244 130.246 331.116 130.456 330.989 130.666L327.042 128.675C327.17 128.466 327.361 128.256 327.488 128.047ZM353.842 141.142L357.788 143.132C357.597 143.394 357.406 143.603 357.215 143.865C355.879 143.237 354.605 142.556 353.269 141.875C353.46 141.613 353.651 141.404 353.842 141.142ZM380.832 154.656L384.778 156.646C384.587 156.908 384.396 157.118 384.205 157.38C382.869 156.751 381.595 156.07 380.259 155.389C380.45 155.18 380.641 154.918 380.832 154.656ZM374.084 151.408L378.031 153.346C377.84 153.556 377.712 153.765 377.522 154.027L373.575 152.037C373.766 151.827 373.893 151.618 374.084 151.408ZM347.094 137.842L351.041 139.78C350.85 139.989 350.722 140.199 350.531 140.461L346.585 138.47C346.776 138.261 346.903 138.051 347.094 137.842ZM360.462 144.546L364.408 146.537C364.281 146.746 364.09 146.956 363.963 147.218L360.016 145.227C360.143 144.965 360.271 144.756 360.462 144.546ZM367.082 147.899L371.029 149.889C370.838 150.099 370.71 150.308 370.583 150.518L366.636 148.527C366.827 148.318 366.955 148.108 367.082 147.899Z" fill="white"/>
<path fill-rule="evenodd" clip-rule="evenodd" d="M147.851 338.773V328.925L194.001 352.392V362.239L147.851 338.773Z" fill="#E0E0E0"/>
<path fill-rule="evenodd" clip-rule="evenodd" d="M200.239 358.992V349.197L147.851 376.487V386.282L200.239 358.992Z" fill="#A1A1A1"/>
<path fill-rule="evenodd" clip-rule="evenodd" d="M147.851 338.773V328.925L101.955 352.549V362.344L147.851 338.773Z" fill="#BDBDBD"/>
<path fill-rule="evenodd" clip-rule="evenodd" d="M95.4619 358.992V349.197L147.851 376.487V386.282L95.4619 358.992Z" fill="#EDEDED"/>
<path fill-rule="evenodd" clip-rule="evenodd" d="M95.4619 349.197L147.851 321.906L200.239 349.197L147.851 376.487L95.4619 349.197ZM108.511 349.197L147.851 328.978L187.19 349.197L147.851 369.415L108.511 349.197Z" fill="#D4D4D4"/>
<path fill-rule="evenodd" clip-rule="evenodd" d="M147.851 326.359L105.838 304.307V337.882L147.851 359.987V326.359Z" fill="#DEDEDE"/>
<path fill-rule="evenodd" clip-rule="evenodd" d="M105.838 304.306L147.851 282.254L189.864 304.306L147.851 326.359L105.838 304.306Z" fill="#C2C2C2"/>
<path fill-rule="evenodd" clip-rule="evenodd" d="M147.851 326.359L189.863 304.307V337.882L147.851 359.987V326.359Z" fill="#949494"/>
<path fill-rule="evenodd" clip-rule="evenodd" d="M111.695 304.149L116.406 301.635L121.116 304.149L116.406 306.611L111.695 304.149Z" fill="#792EED"/>
<path fill-rule="evenodd" clip-rule="evenodd" d="M142.567 320.23L147.278 317.768L151.988 320.23L147.278 322.692L142.567 320.23Z" fill="#792EED"/>
<path fill-rule="evenodd" clip-rule="evenodd" d="M142.567 288.016L147.278 285.554L151.988 288.016L147.278 290.53L142.567 288.016Z" fill="#792EED"/>
<path fill-rule="evenodd" clip-rule="evenodd" d="M173.44 304.149L178.151 301.635L182.861 304.149L178.151 306.611L173.44 304.149Z" fill="#792EED"/>
<path fill-rule="evenodd" clip-rule="evenodd" d="M121.115 304.149L147.278 290.53L173.44 304.149L147.278 317.768L121.115 304.149ZM127.608 304.149L147.214 294.04L166.82 304.149L147.214 314.259L127.608 304.149Z" fill="#792EED"/>
<path fill-rule="evenodd" clip-rule="evenodd" d="M137.475 334.478L113.923 322.063C112.14 321.121 110.549 321.068 110.549 322.902V325.102C110.549 326.463 112.204 327.354 113.541 328.087L134.802 339.244C137.412 340.606 140.531 342.125 140.531 339.663V338.249C140.467 336.101 139.703 335.578 137.475 334.478Z" fill="#792EED"/>
<path d="M136.966 335.159L113.35 322.744C112.713 322.43 112.204 322.221 111.822 322.221C111.758 322.221 111.695 322.221 111.631 322.221C111.631 322.221 111.567 322.221 111.567 322.273C111.504 322.378 111.44 322.587 111.44 322.849V325.049C111.44 325.468 111.758 325.887 112.14 326.202C112.649 326.621 113.35 327.04 113.986 327.354L135.247 338.511C136.457 339.139 137.857 339.82 138.812 340.082C139.194 340.187 139.512 340.082 139.512 339.611V338.197C139.512 337.306 139.385 336.782 139.003 336.416C138.621 335.997 137.984 335.63 136.966 335.159ZM114.432 321.383L138.048 333.797C139.258 334.425 140.021 334.844 140.594 335.525C141.167 336.206 141.485 336.992 141.485 338.249V339.663C141.485 341.654 140.212 342.073 138.366 341.654C137.157 341.392 135.629 340.606 134.229 339.925L112.968 328.768C112.267 328.402 111.44 327.93 110.803 327.406C110.04 326.778 109.53 326.044 109.53 325.102V322.902C109.53 322.273 109.658 321.802 109.976 321.435C110.167 321.173 110.485 320.963 110.803 320.806C111.122 320.702 111.44 320.597 111.822 320.597C112.586 320.649 113.477 320.911 114.432 321.383Z" fill="#393185"/>
<path fill-rule="evenodd" clip-rule="evenodd" d="M157.717 333.797L181.334 321.383C183.116 320.44 184.707 320.387 184.707 322.221V324.421C184.707 325.783 183.052 326.673 181.716 327.406L160.455 338.563C157.845 339.925 154.726 341.444 154.726 338.982V337.568C154.789 335.421 155.553 334.897 157.717 333.797Z" fill="#792EED"/>
<path d="M157.209 333.116L180.825 320.702C181.716 320.23 182.671 319.916 183.435 319.916C183.817 319.916 184.135 319.968 184.454 320.125C184.772 320.283 185.09 320.44 185.281 320.754C185.536 321.121 185.727 321.592 185.727 322.221V324.421C185.727 325.311 185.217 326.097 184.454 326.725C183.817 327.249 182.989 327.721 182.289 328.087L161.028 339.192C159.628 339.925 158.164 340.659 156.891 340.92C155.045 341.339 153.771 340.92 153.771 338.93V337.516C153.771 336.259 154.026 335.473 154.663 334.792C155.236 334.163 156.063 333.744 157.209 333.116ZM181.844 322.064L158.227 334.425C157.209 334.949 156.572 335.316 156.19 335.735C155.872 336.101 155.681 336.625 155.681 337.516V338.93C155.681 339.401 155.936 339.454 156.381 339.401C157.336 339.192 158.737 338.511 159.946 337.83L181.207 326.673C181.844 326.359 182.544 325.94 183.053 325.521C183.499 325.154 183.753 324.787 183.753 324.368V322.168C183.753 321.854 183.69 321.697 183.626 321.592L183.562 321.54C183.499 321.54 183.499 321.54 183.371 321.54C183.053 321.54 182.48 321.749 181.844 322.064Z" fill="#393185"/>
<path fill-rule="evenodd" clip-rule="evenodd" d="M287.384 422.686V412.839L333.598 436.305V446.1L287.384 422.686Z" fill="#E0E0E0"/>
<path fill-rule="evenodd" clip-rule="evenodd" d="M339.772 442.905V433.058L287.384 460.348V470.195L339.772 442.905Z" fill="#A1A1A1"/>
<path fill-rule="evenodd" clip-rule="evenodd" d="M287.385 422.686V412.839L241.489 436.462V446.257L287.385 422.686Z" fill="#BDBDBD"/>
<path fill-rule="evenodd" clip-rule="evenodd" d="M235.059 442.905V433.058L287.384 460.348V470.195L235.059 442.905Z" fill="#EDEDED"/>
<path fill-rule="evenodd" clip-rule="evenodd" d="M235.059 433.058L287.448 405.767L339.837 433.058L287.448 460.348L235.059 433.058ZM248.109 433.058L287.448 412.839L326.787 433.058L287.384 453.329L248.109 433.058Z" fill="#D4D4D4"/>
<path fill-rule="evenodd" clip-rule="evenodd" d="M287.384 410.272L245.372 388.22V421.796L287.384 443.9V410.272Z" fill="#DEDEDE"/>
<path fill-rule="evenodd" clip-rule="evenodd" d="M245.372 388.22L287.384 366.115L329.461 388.22L287.384 410.272L245.372 388.22Z" fill="#C2C2C2"/>
<path fill-rule="evenodd" clip-rule="evenodd" d="M287.384 410.272L329.46 388.22V421.796L287.384 443.9V410.272Z" fill="#949494"/>
<path fill-rule="evenodd" clip-rule="evenodd" d="M251.229 388.01L255.939 385.549L260.65 388.01L255.939 390.525L251.229 388.01Z" fill="#792EED"/>
<path fill-rule="evenodd" clip-rule="evenodd" d="M282.101 404.144L286.812 401.682L291.522 404.144L286.812 406.606L282.101 404.144Z" fill="#792EED"/>
<path fill-rule="evenodd" clip-rule="evenodd" d="M282.101 371.93L286.812 369.468L291.522 371.93L286.812 374.392L282.101 371.93Z" fill="#792EED"/>
<path fill-rule="evenodd" clip-rule="evenodd" d="M312.974 388.01L317.685 385.549L322.395 388.01L317.685 390.525L312.974 388.01Z" fill="#792EED"/>
<path fill-rule="evenodd" clip-rule="evenodd" d="M260.649 388.01L286.811 374.391L312.974 388.01L286.811 401.629L260.649 388.01ZM267.205 388.01L286.811 377.901L306.417 388.01L286.811 398.12L267.205 388.01Z" fill="#792EED"/>
<path fill-rule="evenodd" clip-rule="evenodd" d="M277.072 418.391L253.455 405.977C251.673 405.034 250.082 404.982 250.082 406.815V409.015C250.082 410.377 251.737 411.267 253.073 412.001L274.334 423.158C276.944 424.52 280.063 426.039 280.063 423.577V422.162C280.063 420.015 279.236 419.491 277.072 418.391Z" fill="#792EED"/>
<path d="M276.563 419.02L252.947 406.605C252.31 406.291 251.801 406.082 251.419 406.082C251.356 406.082 251.292 406.082 251.228 406.082C251.228 406.082 251.165 406.082 251.165 406.134C251.101 406.239 251.037 406.448 251.037 406.71V408.91C251.037 409.329 251.356 409.748 251.738 410.063C252.247 410.482 252.947 410.901 253.584 411.215L274.845 422.372C276.054 423.001 277.454 423.681 278.409 423.943C278.791 424.048 279.11 423.943 279.11 423.472V422.058C279.11 421.167 278.982 420.643 278.6 420.277C278.218 419.91 277.518 419.543 276.563 419.02ZM253.965 405.296L277.582 417.71C278.791 418.339 279.555 418.758 280.128 419.439C280.701 420.12 281.019 420.905 281.019 422.162V423.577C281.019 425.567 279.746 425.986 277.9 425.567C276.691 425.305 275.163 424.52 273.762 423.839L252.501 412.682C251.801 412.315 250.974 411.844 250.337 411.32C249.573 410.691 249.064 409.958 249.064 409.015V406.815C249.064 406.186 249.191 405.715 249.51 405.348C249.701 405.086 250.019 404.877 250.337 404.72C250.655 404.615 250.974 404.51 251.356 404.51C252.183 404.563 253.074 404.825 253.965 405.296Z" fill="#393185"/>
<path fill-rule="evenodd" clip-rule="evenodd" d="M297.315 417.658L320.931 405.244C322.714 404.301 324.305 404.248 324.305 406.082V408.282C324.305 409.643 322.65 410.534 321.313 411.267L300.116 422.424C297.506 423.786 294.387 425.305 294.387 422.843V421.429C294.323 419.334 295.151 418.81 297.315 417.658Z" fill="#792EED"/>
<path d="M296.806 417.029L320.422 404.615C321.313 404.144 322.268 403.829 323.032 403.829C323.414 403.829 323.732 403.882 324.05 404.039C324.369 404.196 324.687 404.353 324.878 404.667C325.132 405.034 325.323 405.505 325.323 406.134V408.334C325.323 409.224 324.814 410.01 324.05 410.639C323.414 411.163 322.586 411.634 321.886 412.001L300.625 423.158C299.224 423.891 297.76 424.624 296.487 424.886C294.641 425.305 293.368 424.886 293.368 422.896V421.481C293.368 420.224 293.623 419.439 294.259 418.758C294.769 418.077 295.596 417.605 296.806 417.029ZM321.44 405.977L297.824 418.391C296.806 418.915 296.169 419.281 295.787 419.701C295.469 420.067 295.278 420.591 295.278 421.481V422.896C295.278 423.367 295.532 423.42 295.978 423.367C296.933 423.158 298.333 422.477 299.543 421.796L320.804 410.639C321.44 410.324 322.141 409.905 322.65 409.486C323.095 409.12 323.35 408.753 323.35 408.334V406.134C323.35 405.82 323.286 405.663 323.223 405.558L323.159 405.505C323.095 405.505 323.095 405.505 322.968 405.505C322.586 405.453 322.013 405.61 321.44 405.977Z" fill="#393185"/>
<path fill-rule="evenodd" clip-rule="evenodd" d="M440.73 338.773V328.925L486.881 352.392V362.239L440.73 338.773Z" fill="#E0E0E0"/>
<path fill-rule="evenodd" clip-rule="evenodd" d="M493.119 358.992V349.197L440.73 376.487V386.282L493.119 358.992Z" fill="#A1A1A1"/>
<path fill-rule="evenodd" clip-rule="evenodd" d="M440.731 338.773V328.925L394.835 352.549V362.344L440.731 338.773Z" fill="#BDBDBD"/>
<path fill-rule="evenodd" clip-rule="evenodd" d="M388.406 358.992V349.197L440.731 376.487V386.282L388.406 358.992Z" fill="#EDEDED"/>
<path fill-rule="evenodd" clip-rule="evenodd" d="M388.406 349.197L440.795 321.906L493.184 349.197L440.795 376.487L388.406 349.197ZM401.392 349.197L440.731 328.978L480.071 349.197L440.731 369.415L401.392 349.197Z" fill="#D4D4D4"/>
<path fill-rule="evenodd" clip-rule="evenodd" d="M440.731 326.359L398.718 304.307V337.882L440.731 359.987V326.359Z" fill="#DEDEDE"/>
<path fill-rule="evenodd" clip-rule="evenodd" d="M398.718 304.306L440.731 282.254L482.808 304.306L440.731 326.359L398.718 304.306Z" fill="#C2C2C2"/>
<path fill-rule="evenodd" clip-rule="evenodd" d="M440.73 326.359L482.807 304.307V337.882L440.73 359.987V326.359Z" fill="#949494"/>
<path fill-rule="evenodd" clip-rule="evenodd" d="M404.575 304.149L409.286 301.635L413.996 304.149L409.286 306.611L404.575 304.149Z" fill="#792EED"/>
<path fill-rule="evenodd" clip-rule="evenodd" d="M435.448 320.23L440.158 317.768L444.869 320.23L440.158 322.692L435.448 320.23Z" fill="#792EED"/>
<path fill-rule="evenodd" clip-rule="evenodd" d="M435.448 288.016L440.158 285.554L444.869 288.016L440.158 290.53L435.448 288.016Z" fill="#792EED"/>
<path fill-rule="evenodd" clip-rule="evenodd" d="M466.321 304.149L471.031 301.635L475.742 304.149L471.031 306.611L466.321 304.149Z" fill="#792EED"/>
<path fill-rule="evenodd" clip-rule="evenodd" d="M413.996 304.149L440.158 290.53L466.321 304.149L440.158 317.768L413.996 304.149ZM420.552 304.149L440.158 294.04L459.764 304.149L440.158 314.259L420.552 304.149Z" fill="#792EED"/>
<path fill-rule="evenodd" clip-rule="evenodd" d="M430.419 334.478L406.803 322.063C405.021 321.121 403.429 321.068 403.429 322.902V325.102C403.429 326.463 405.084 327.354 406.421 328.087L427.682 339.244C430.292 340.606 433.411 342.125 433.411 339.663V338.249C433.347 336.101 432.584 335.578 430.419 334.478Z" fill="#792EED"/>
<path d="M429.91 335.159L406.294 322.744C405.658 322.43 405.148 322.221 404.766 322.221C404.703 322.221 404.639 322.221 404.575 322.221C404.575 322.221 404.512 322.221 404.512 322.273C404.448 322.378 404.384 322.587 404.384 322.849V325.049C404.384 325.468 404.703 325.887 405.085 326.202C405.594 326.621 406.294 327.04 406.931 327.354L428.192 338.511C429.401 339.139 430.802 339.82 431.756 340.082C432.138 340.187 432.457 340.082 432.457 339.611V338.197C432.457 337.306 432.329 336.782 431.947 336.416C431.565 335.997 430.865 335.63 429.91 335.159ZM407.313 321.383L430.929 333.797C432.138 334.425 432.902 334.844 433.475 335.525C434.048 336.206 434.366 336.992 434.366 338.249V339.663C434.366 341.654 433.093 342.073 431.247 341.654C430.038 341.392 428.51 340.606 427.11 339.925L405.849 328.768C405.148 328.402 404.321 327.93 403.684 327.406C402.92 326.778 402.411 326.044 402.411 325.102V322.902C402.411 322.273 402.538 321.802 402.857 321.435C403.048 321.173 403.366 320.963 403.684 320.806C404.003 320.702 404.321 320.597 404.703 320.597C405.467 320.649 406.421 320.911 407.313 321.383Z" fill="#393185"/>
<path fill-rule="evenodd" clip-rule="evenodd" d="M450.661 333.797L474.278 321.383C476.06 320.44 477.651 320.387 477.651 322.221V324.421C477.651 325.783 475.996 326.673 474.66 327.406L453.398 338.563C450.789 339.925 447.669 341.444 447.669 338.982V337.568C447.669 335.421 448.497 334.897 450.661 333.797Z" fill="#792EED"/>
<path d="M450.089 333.116L473.705 320.702C474.596 320.23 475.551 319.916 476.315 319.916C476.697 319.916 477.015 319.968 477.333 320.125C477.652 320.283 477.97 320.44 478.161 320.754C478.416 321.121 478.607 321.592 478.607 322.221V324.421C478.607 325.311 478.097 326.097 477.333 326.725C476.697 327.249 475.869 327.721 475.169 328.087L453.908 339.244C452.508 339.978 451.044 340.711 449.77 340.973C447.924 341.392 446.651 340.973 446.651 338.982V337.568C446.651 336.311 446.906 335.525 447.543 334.844C448.115 334.163 448.943 333.744 450.089 333.116ZM474.787 322.064L451.171 334.425C450.152 334.949 449.516 335.316 449.134 335.735C448.816 336.101 448.625 336.625 448.625 337.516V338.93C448.625 339.401 448.879 339.454 449.325 339.401C450.28 339.192 451.68 338.511 452.89 337.83L474.151 326.673C474.787 326.359 475.487 325.94 475.997 325.521C476.442 325.154 476.697 324.787 476.697 324.368V322.168C476.697 321.854 476.633 321.697 476.57 321.592L476.506 321.54C476.442 321.54 476.442 321.54 476.315 321.54C475.933 321.54 475.36 321.749 474.787 322.064Z" fill="#393185"/>
<path fill-rule="evenodd" clip-rule="evenodd" d="M198.903 381.515C199.094 381.253 199.285 381.044 199.476 380.782L203.423 382.772C203.232 383.034 203.041 383.244 202.85 383.506C201.513 382.825 200.24 382.144 198.903 381.515ZM192.729 377.482L196.675 379.42C196.484 379.63 196.357 379.839 196.166 380.101L192.22 378.11C192.411 377.901 192.601 377.691 192.729 377.482ZM185.79 373.972L189.737 375.963C189.546 376.172 189.419 376.382 189.291 376.591L185.345 374.601C185.472 374.391 185.599 374.182 185.79 373.972ZM212.08 387.068L216.027 389.058C215.836 389.32 215.645 389.529 215.454 389.791C214.117 389.163 212.844 388.482 211.507 387.801C211.698 387.591 211.889 387.329 212.08 387.068ZM239.07 400.634L243.017 402.624C242.826 402.886 242.635 403.096 242.444 403.358C241.107 402.729 239.834 402.048 238.497 401.367C238.688 401.105 238.879 400.844 239.07 400.634ZM232.386 397.334L236.333 399.272C236.142 399.482 236.015 399.691 235.824 399.953L231.877 397.963C232.068 397.753 232.195 397.544 232.386 397.334ZM205.396 383.768L209.343 385.706C209.152 385.915 209.025 386.125 208.834 386.387L204.887 384.396C205.078 384.239 205.205 384.029 205.396 383.768ZM218.7 390.472L222.647 392.463C222.52 392.672 222.329 392.882 222.201 393.144L218.255 391.153C218.382 390.944 218.509 390.734 218.7 390.472ZM225.384 393.825L229.331 395.815C229.14 396.025 229.013 396.234 228.885 396.444L224.939 394.453C225.066 394.244 225.193 394.034 225.384 393.825Z" fill="white"/>
<path fill-rule="evenodd" clip-rule="evenodd" d="M348.685 293.045C348.876 292.783 349.067 292.573 349.258 292.311L353.141 294.407C352.95 294.668 352.759 294.878 352.568 295.14C351.295 294.407 349.958 293.726 348.685 293.045ZM342.701 288.854L346.584 290.897C346.393 291.107 346.266 291.316 346.075 291.578L342.192 289.483C342.383 289.273 342.51 289.064 342.701 288.854ZM335.827 285.188L339.71 287.283C339.519 287.492 339.391 287.702 339.2 287.911L335.317 285.869C335.508 285.607 335.699 285.397 335.827 285.188ZM361.607 298.964L365.49 301.059C365.299 301.321 365.108 301.53 364.917 301.792C363.644 301.111 362.371 300.43 361.034 299.697C361.289 299.435 361.416 299.226 361.607 298.964ZM388.088 313.211L391.971 315.306C391.78 315.568 391.589 315.778 391.398 316.04C390.125 315.359 388.852 314.678 387.515 313.944C387.706 313.683 387.897 313.421 388.088 313.211ZM381.531 309.754L385.414 311.797C385.224 312.006 385.096 312.216 384.905 312.478L381.022 310.383C381.15 310.173 381.341 309.964 381.531 309.754ZM355.051 295.507L358.934 297.549C358.743 297.759 358.615 297.968 358.424 298.23L354.541 296.135C354.732 295.926 354.86 295.716 355.051 295.507ZM368.1 302.526L371.919 304.621C371.728 304.83 371.601 305.04 371.41 305.249L367.527 303.154C367.782 302.945 367.973 302.735 368.1 302.526ZM374.657 306.035L378.54 308.13C378.349 308.34 378.221 308.549 378.03 308.759L374.147 306.716C374.338 306.454 374.466 306.297 374.657 306.035Z" fill="white"/>
<path fill-rule="evenodd" clip-rule="evenodd" d="M286.811 323.006C287.193 323.006 287.511 323.006 287.893 323.006V326.83C287.511 326.83 287.193 326.83 286.811 326.83C286.811 325.521 286.811 324.263 286.811 323.006ZM287.766 316.564V320.335C287.448 320.335 287.129 320.335 286.811 320.335V316.564C287.129 316.564 287.448 316.564 287.766 316.564ZM287.766 309.806V313.578C287.448 313.578 287.193 313.578 286.875 313.578V309.806C287.129 309.859 287.448 309.806 287.766 309.806ZM287.893 335.159V338.982C287.511 338.982 287.193 338.982 286.811 338.982C286.811 337.725 286.811 336.468 286.811 335.211C287.193 335.159 287.511 335.159 287.893 335.159ZM287.83 354.696V358.468C287.511 358.468 287.193 358.468 286.875 358.468V354.696C287.193 354.749 287.511 354.696 287.83 354.696ZM287.766 328.716V332.487C287.448 332.487 287.129 332.487 286.811 332.487V328.716C287.129 328.716 287.448 328.716 287.766 328.716ZM287.766 341.549V345.32C287.448 345.32 287.129 345.32 286.811 345.32V341.549C287.193 341.549 287.448 341.549 287.766 341.549ZM287.766 347.992V351.763C287.448 351.763 287.193 351.763 286.875 351.763V347.992C287.193 347.992 287.448 347.992 287.766 347.992Z" fill="white"/>
<path fill-rule="evenodd" clip-rule="evenodd" d="M286.62 162.408C287.002 162.408 287.321 162.408 287.702 162.408V166.232C287.321 166.232 287.002 166.232 286.62 166.232C286.557 164.975 286.62 163.717 286.62 162.408ZM287.575 156.018V159.789C287.257 159.789 286.939 159.789 286.62 159.789V156.018C286.939 156.018 287.257 156.018 287.575 156.018ZM287.511 149.26V153.032C287.193 153.032 286.939 153.032 286.62 153.032V149.26C286.939 149.26 287.193 149.26 287.511 149.26ZM287.639 174.56V178.384C287.257 178.384 286.939 178.384 286.557 178.384C286.557 177.127 286.557 175.87 286.557 174.613C286.939 174.613 287.32 174.56 287.639 174.56ZM287.575 168.17V171.941C287.257 171.941 286.939 171.941 286.62 171.941V168.17C286.939 168.17 287.257 168.17 287.575 168.17ZM287.575 181.003V184.774C287.257 184.774 286.939 184.774 286.62 184.774V181.003C286.939 181.003 287.257 181.003 287.575 181.003ZM287.575 187.446V191.217C287.257 191.217 287.002 191.217 286.684 191.217V187.446C287.002 187.446 287.257 187.446 287.575 187.446Z" fill="white"/>
<path fill-rule="evenodd" clip-rule="evenodd" d="M204.632 101.909L188.59 93.4753V106.309L204.632 114.742V101.909Z" fill="#FF6E73"/>
<path fill-rule="evenodd" clip-rule="evenodd" d="M188.59 93.4754L204.632 85.0421L220.737 93.4754L204.632 101.909L188.59 93.4754Z" fill="#D45D61"/>
<path fill-rule="evenodd" clip-rule="evenodd" d="M204.632 101.909L220.737 93.4753V106.309L204.632 114.742V101.909Z" fill="#BF4C50"/>
<path opacity="0.2" fill-rule="evenodd" clip-rule="evenodd" d="M157.591 253.917L135.82 242.498V259.888L157.591 271.359V253.917Z" fill="#FF8080"/>
<path opacity="0.2" fill-rule="evenodd" clip-rule="evenodd" d="M135.82 242.498L157.591 231.079L179.361 242.498L157.591 253.917L135.82 242.498Z" fill="#FF8080"/>
<path opacity="0.2" fill-rule="evenodd" clip-rule="evenodd" d="M157.591 253.917L179.361 242.498V259.888L157.591 271.359V253.917Z" fill="#FF8080"/>
<path opacity="0.2" fill-rule="evenodd" clip-rule="evenodd" d="M400.374 245.536L378.604 234.117V251.507L400.374 262.926V245.536Z" fill="#FF8080"/>
<path opacity="0.2" fill-rule="evenodd" clip-rule="evenodd" d="M378.604 234.117L400.374 222.698L422.144 234.117L400.374 245.536L378.604 234.117Z" fill="#FF8080"/>
<path opacity="0.2" fill-rule="evenodd" clip-rule="evenodd" d="M400.374 245.536L422.144 234.117V251.507L400.374 262.926V245.536Z" fill="#FF8080"/>
<path opacity="0.2" fill-rule="evenodd" clip-rule="evenodd" d="M355.242 356.635L333.472 345.216V362.606L355.242 374.025V356.635Z" fill="#FF8080"/>
<path opacity="0.2" fill-rule="evenodd" clip-rule="evenodd" d="M333.472 345.216L355.242 333.797L377.012 345.216L355.242 356.635L333.472 345.216Z" fill="#FF8080"/>
<path opacity="0.2" fill-rule="evenodd" clip-rule="evenodd" d="M355.242 356.635L377.012 345.216V362.606L355.242 374.025V356.635Z" fill="#FF8080"/>
<path opacity="0.2" fill-rule="evenodd" clip-rule="evenodd" d="M204.632 101.909L182.925 90.4897V107.88L204.632 119.299V101.909Z" fill="#FF8080"/>
<path opacity="0.2" fill-rule="evenodd" clip-rule="evenodd" d="M182.925 90.4897L204.632 79.0708L226.402 90.4897L204.632 101.909L182.925 90.4897Z" fill="#FF8080"/>
<path opacity="0.2" fill-rule="evenodd" clip-rule="evenodd" d="M204.632 101.909L226.402 90.4897V107.88L204.632 119.299V101.909Z" fill="#FF8080"/>
<path opacity="0.2" fill-rule="evenodd" clip-rule="evenodd" d="M259.185 185.246L241.998 176.236V190.012L259.185 199.022V185.246Z" fill="#97F8FF"/>
<path opacity="0.2" fill-rule="evenodd" clip-rule="evenodd" d="M241.998 176.236L259.185 167.175L276.435 176.236L259.185 185.246L241.998 176.236Z" fill="#97F8FF"/>
<path opacity="0.2" fill-rule="evenodd" clip-rule="evenodd" d="M259.186 185.246L276.436 176.236V190.012L259.186 199.022V185.246Z" fill="#97F8FF"/>
<path opacity="0.2" fill-rule="evenodd" clip-rule="evenodd" d="M315.393 184.67L298.206 175.608V189.384L315.393 198.446V184.67Z" fill="#97F8FF"/>
<path opacity="0.2" fill-rule="evenodd" clip-rule="evenodd" d="M298.206 175.608L315.393 166.598L332.644 175.608L315.393 184.67L298.206 175.608Z" fill="#97F8FF"/>
<path opacity="0.2" fill-rule="evenodd" clip-rule="evenodd" d="M315.393 184.67L332.644 175.608V189.384L315.393 198.446V184.67Z" fill="#97F8FF"/>
<path opacity="0.2" fill-rule="evenodd" clip-rule="evenodd" d="M258.803 309.859L241.553 300.849V314.625L258.803 323.635V309.859Z" fill="#97F8FF"/>
<path opacity="0.2" fill-rule="evenodd" clip-rule="evenodd" d="M241.553 300.849L258.803 291.788L275.991 300.849L258.803 309.859L241.553 300.849Z" fill="#97F8FF"/>
<path opacity="0.2" fill-rule="evenodd" clip-rule="evenodd" d="M258.804 309.859L275.991 300.849V314.625L258.804 323.635V309.859Z" fill="#97F8FF"/>
<path fill-rule="evenodd" clip-rule="evenodd" d="M400.373 245.483L384.269 237.05V249.883L400.373 258.369V245.483Z" fill="#FF6E73"/>
<path fill-rule="evenodd" clip-rule="evenodd" d="M384.269 237.05L400.373 228.617L416.415 237.05L400.373 245.483L384.269 237.05Z" fill="#D45D61"/>
<path fill-rule="evenodd" clip-rule="evenodd" d="M400.374 245.483L416.415 237.05V249.883L400.374 258.369V245.483Z" fill="#BF4C50"/>
<path fill-rule="evenodd" clip-rule="evenodd" d="M157.589 253.917L141.484 245.483V258.369L157.589 266.802V253.917Z" fill="#FF6E73"/>
<path fill-rule="evenodd" clip-rule="evenodd" d="M141.484 245.483L157.589 237.05L173.631 245.483L157.589 253.917L141.484 245.483Z" fill="#D45D61"/>
<path fill-rule="evenodd" clip-rule="evenodd" d="M157.591 253.917L173.632 245.483V258.369L157.591 266.802V253.917Z" fill="#BF4C50"/>
<path fill-rule="evenodd" clip-rule="evenodd" d="M355.241 356.635L339.2 348.201V361.087L355.241 369.52V356.635Z" fill="#FF6E73"/>
<path fill-rule="evenodd" clip-rule="evenodd" d="M339.2 348.201L355.241 339.768L371.346 348.201L355.241 356.635L339.2 348.201Z" fill="#D45D61"/>
<path fill-rule="evenodd" clip-rule="evenodd" d="M355.242 356.635L371.347 348.201V361.087L355.242 369.52V356.635Z" fill="#BF4C50"/>
<path fill-rule="evenodd" clip-rule="evenodd" d="M259.185 185.246L246.899 178.803V188.651L259.185 195.093V185.246Z" fill="#96CEFF"/>
<path fill-rule="evenodd" clip-rule="evenodd" d="M246.899 178.803L259.185 172.308L271.534 178.803L259.185 185.246L246.899 178.803Z" fill="#72AADB"/>
<path fill-rule="evenodd" clip-rule="evenodd" d="M259.186 185.246L271.535 178.803V188.651L259.186 195.093V185.246Z" fill="#588CBA"/>
<path fill-rule="evenodd" clip-rule="evenodd" d="M315.393 184.67L303.108 178.227V188.074L315.393 194.517V184.67Z" fill="#96CEFF"/>
<path fill-rule="evenodd" clip-rule="evenodd" d="M303.108 178.227L315.393 171.732L327.743 178.227L315.393 184.67L303.108 178.227Z" fill="#72AADB"/>
<path fill-rule="evenodd" clip-rule="evenodd" d="M315.393 184.67L327.742 178.227V188.074L315.393 194.517V184.67Z" fill="#588CBA"/>
<path fill-rule="evenodd" clip-rule="evenodd" d="M258.803 309.859L246.454 303.416V313.264L258.803 319.706V309.859Z" fill="#96CEFF"/>
<path fill-rule="evenodd" clip-rule="evenodd" d="M246.454 303.416L258.803 296.921L271.089 303.416L258.803 309.859L246.454 303.416Z" fill="#72AADB"/>
<path fill-rule="evenodd" clip-rule="evenodd" d="M258.804 309.859L271.089 303.416V313.264L258.804 319.706V309.859Z" fill="#588CBA"/>
<path fill-rule="evenodd" clip-rule="evenodd" d="M253.902 250.826L251.292 249.412V251.559L253.902 252.921V250.826Z" fill="#96CEFF"/>
<path fill-rule="evenodd" clip-rule="evenodd" d="M251.292 249.412L253.902 248.05L256.575 249.412L253.902 250.826L251.292 249.412Z" fill="#72AADB"/>
<path fill-rule="evenodd" clip-rule="evenodd" d="M253.902 250.826L256.575 249.412V251.559L253.902 252.921V250.826Z" fill="#588CBA"/>
<path fill-rule="evenodd" clip-rule="evenodd" d="M253.838 244.907L251.229 243.493V245.588L253.838 247.002V244.907Z" fill="#96CEFF"/>
<path fill-rule="evenodd" clip-rule="evenodd" d="M251.229 243.493L253.838 242.131L256.448 243.493L253.838 244.907L251.229 243.493Z" fill="#72AADB"/>
<path fill-rule="evenodd" clip-rule="evenodd" d="M253.838 244.907L256.448 243.493V245.588L253.838 247.002V244.907Z" fill="#588CBA"/>
<path fill-rule="evenodd" clip-rule="evenodd" d="M253.775 238.936L251.101 237.574V239.669L253.775 241.083V238.936Z" fill="#96CEFF"/>
<path fill-rule="evenodd" clip-rule="evenodd" d="M251.101 237.574L253.775 236.212L256.384 237.574L253.775 238.936L251.101 237.574Z" fill="#72AADB"/>
<path fill-rule="evenodd" clip-rule="evenodd" d="M253.774 238.936L256.384 237.574V239.669L253.774 241.083V238.936Z" fill="#588CBA"/>
<path fill-rule="evenodd" clip-rule="evenodd" d="M253.71 233.017L251.037 231.655V233.75L253.71 235.112V233.017Z" fill="#96CEFF"/>
<path fill-rule="evenodd" clip-rule="evenodd" d="M251.037 231.655L253.71 230.241L256.32 231.655L253.71 233.017L251.037 231.655Z" fill="#72AADB"/>
<path fill-rule="evenodd" clip-rule="evenodd" d="M253.711 233.017L256.321 231.655V233.75L253.711 235.112V233.017Z" fill="#588CBA"/>
<path fill-rule="evenodd" clip-rule="evenodd" d="M261.414 254.65L258.804 253.288V255.383L261.414 256.745V254.65Z" fill="#96CEFF"/>
<path fill-rule="evenodd" clip-rule="evenodd" d="M258.804 253.288L261.414 251.874L264.023 253.288L261.414 254.65L258.804 253.288Z" fill="#72AADB"/>
<path fill-rule="evenodd" clip-rule="evenodd" d="M261.413 254.65L264.022 253.288V255.383L261.413 256.745V254.65Z" fill="#588CBA"/>
<path fill-rule="evenodd" clip-rule="evenodd" d="M261.349 248.731L258.675 247.317V249.464L261.349 250.826V248.731Z" fill="#96CEFF"/>
<path fill-rule="evenodd" clip-rule="evenodd" d="M258.675 247.317L261.349 245.955L263.959 247.317L261.349 248.731L258.675 247.317Z" fill="#72AADB"/>
<path fill-rule="evenodd" clip-rule="evenodd" d="M261.35 248.731L263.96 247.317V249.464L261.35 250.826V248.731Z" fill="#588CBA"/>
<path fill-rule="evenodd" clip-rule="evenodd" d="M261.285 242.812L258.611 241.398V243.493L261.285 244.907V242.812Z" fill="#96CEFF"/>
<path fill-rule="evenodd" clip-rule="evenodd" d="M258.611 241.398L261.285 240.036L263.895 241.398L261.285 242.812L258.611 241.398Z" fill="#72AADB"/>
<path fill-rule="evenodd" clip-rule="evenodd" d="M261.286 242.812L263.896 241.398V243.493L261.286 244.907V242.812Z" fill="#588CBA"/>
<path fill-rule="evenodd" clip-rule="evenodd" d="M261.158 236.841L258.548 235.479V237.574L261.158 238.988V236.841Z" fill="#96CEFF"/>
<path fill-rule="evenodd" clip-rule="evenodd" d="M258.548 235.479L261.158 234.117L263.832 235.479L261.158 236.841L258.548 235.479Z" fill="#72AADB"/>
<path fill-rule="evenodd" clip-rule="evenodd" d="M261.158 236.841L263.832 235.479V237.574L261.158 238.988V236.841Z" fill="#588CBA"/>
<path fill-rule="evenodd" clip-rule="evenodd" d="M268.797 258.788L266.188 257.374V259.469L268.797 260.883V258.788Z" fill="#96CEFF"/>
<path fill-rule="evenodd" clip-rule="evenodd" d="M266.188 257.374L268.797 256.012L271.471 257.374L268.797 258.788L266.188 257.374Z" fill="#72AADB"/>
<path fill-rule="evenodd" clip-rule="evenodd" d="M268.797 258.788L271.47 257.374V259.469L268.797 260.883V258.788Z" fill="#588CBA"/>
<path fill-rule="evenodd" clip-rule="evenodd" d="M268.733 252.817L266.123 251.455V253.55L268.733 254.964V252.817Z" fill="#96CEFF"/>
<path fill-rule="evenodd" clip-rule="evenodd" d="M266.123 251.455L268.733 250.093L271.343 251.455L268.733 252.817L266.123 251.455Z" fill="#72AADB"/>
<path fill-rule="evenodd" clip-rule="evenodd" d="M268.733 252.817L271.343 251.455V253.55L268.733 254.964V252.817Z" fill="#588CBA"/>
<path fill-rule="evenodd" clip-rule="evenodd" d="M268.669 246.898L265.996 245.536V247.631L268.669 248.993V246.898Z" fill="#96CEFF"/>
<path fill-rule="evenodd" clip-rule="evenodd" d="M265.996 245.536L268.669 244.121L271.279 245.536L268.669 246.898L265.996 245.536Z" fill="#72AADB"/>
<path fill-rule="evenodd" clip-rule="evenodd" d="M268.67 246.898L271.28 245.536V247.631L268.67 248.993V246.898Z" fill="#588CBA"/>
<path fill-rule="evenodd" clip-rule="evenodd" d="M268.606 240.979L265.932 239.564V241.712L268.606 243.074V240.979Z" fill="#96CEFF"/>
<path fill-rule="evenodd" clip-rule="evenodd" d="M265.932 239.564L268.606 238.202L271.216 239.564L268.606 240.979L265.932 239.564Z" fill="#72AADB"/>
<path fill-rule="evenodd" clip-rule="evenodd" d="M268.606 240.979L271.216 239.564V241.712L268.606 243.074V240.979Z" fill="#588CBA"/>
<path fill-rule="evenodd" clip-rule="evenodd" d="M275.863 262.35L273.253 260.988V263.083L275.863 264.497V262.35Z" fill="#96CEFF"/>
<path fill-rule="evenodd" clip-rule="evenodd" d="M273.253 260.988L275.863 259.574L278.536 260.988L275.863 262.35L273.253 260.988Z" fill="#72AADB"/>
<path fill-rule="evenodd" clip-rule="evenodd" d="M275.862 262.35L278.536 260.988V263.083L275.862 264.497V262.35Z" fill="#588CBA"/>
<path fill-rule="evenodd" clip-rule="evenodd" d="M275.799 256.431L273.189 255.069V257.164L275.799 258.526V256.431Z" fill="#96CEFF"/>
<path fill-rule="evenodd" clip-rule="evenodd" d="M273.189 255.069L275.799 253.655L278.473 255.069L275.799 256.431L273.189 255.069Z" fill="#72AADB"/>
<path fill-rule="evenodd" clip-rule="evenodd" d="M275.799 256.431L278.472 255.069V257.164L275.799 258.526V256.431Z" fill="#588CBA"/>
<path fill-rule="evenodd" clip-rule="evenodd" d="M275.735 250.512L273.125 249.098V251.245L275.735 252.607V250.512Z" fill="#96CEFF"/>
<path fill-rule="evenodd" clip-rule="evenodd" d="M273.125 249.098L275.735 247.736L278.409 249.098L275.735 250.512L273.125 249.098Z" fill="#72AADB"/>
<path fill-rule="evenodd" clip-rule="evenodd" d="M275.735 250.512L278.409 249.098V251.245L275.735 252.607V250.512Z" fill="#588CBA"/>
<path fill-rule="evenodd" clip-rule="evenodd" d="M275.672 244.593L273.062 243.179V245.274L275.672 246.688V244.593Z" fill="#96CEFF"/>
<path fill-rule="evenodd" clip-rule="evenodd" d="M273.062 243.179L275.672 241.817L278.282 243.179L275.672 244.593L273.062 243.179Z" fill="#72AADB"/>
<path fill-rule="evenodd" clip-rule="evenodd" d="M275.672 244.593L278.282 243.179V245.274L275.672 246.688V244.593Z" fill="#588CBA"/>
<path fill-rule="evenodd" clip-rule="evenodd" d="M292.668 244.331L324.496 227.622V252.712L292.668 269.369V244.331Z" fill="#393185"/>
<path fill-rule="evenodd" clip-rule="evenodd" d="M320.294 251.507L322.904 250.093V252.24L320.294 253.602V251.507Z" fill="#96CEFF"/>
<path fill-rule="evenodd" clip-rule="evenodd" d="M322.904 250.093L320.294 248.731L317.685 250.093L320.294 251.507L322.904 250.093Z" fill="#72AADB"/>
<path fill-rule="evenodd" clip-rule="evenodd" d="M320.294 251.507L317.685 250.093V252.24L320.294 253.602V251.507Z" fill="#588CBA"/>
<path fill-rule="evenodd" clip-rule="evenodd" d="M320.358 245.588L323.031 244.174V246.269L320.358 247.683V245.588Z" fill="#96CEFF"/>
<path fill-rule="evenodd" clip-rule="evenodd" d="M323.031 244.174L320.358 242.812L317.748 244.174L320.358 245.588L323.031 244.174Z" fill="#72AADB"/>
<path fill-rule="evenodd" clip-rule="evenodd" d="M320.358 245.588L317.748 244.174V246.269L320.358 247.683V245.588Z" fill="#588CBA"/>
<path fill-rule="evenodd" clip-rule="evenodd" d="M320.421 239.617L323.095 238.255V240.35L320.421 241.764V239.617Z" fill="#96CEFF"/>
<path fill-rule="evenodd" clip-rule="evenodd" d="M323.095 238.255L320.421 236.893L317.812 238.255L320.421 239.617L323.095 238.255Z" fill="#72AADB"/>
<path fill-rule="evenodd" clip-rule="evenodd" d="M320.421 239.617L317.812 238.255V240.35L320.421 241.764V239.617Z" fill="#588CBA"/>
<path fill-rule="evenodd" clip-rule="evenodd" d="M320.549 233.698L323.159 232.336V234.431L320.549 235.793V233.698Z" fill="#96CEFF"/>
<path fill-rule="evenodd" clip-rule="evenodd" d="M323.159 232.336L320.55 230.922L317.876 232.336L320.55 233.698L323.159 232.336Z" fill="#72AADB"/>
<path fill-rule="evenodd" clip-rule="evenodd" d="M320.55 233.698L317.876 232.336V234.431L320.55 235.793V233.698Z" fill="#588CBA"/>
<path fill-rule="evenodd" clip-rule="evenodd" d="M312.783 255.331L315.457 253.969V256.064L312.783 257.426V255.331Z" fill="#96CEFF"/>
<path fill-rule="evenodd" clip-rule="evenodd" d="M315.457 253.969L312.783 252.555L310.173 253.969L312.783 255.331L315.457 253.969Z" fill="#72AADB"/>
<path fill-rule="evenodd" clip-rule="evenodd" d="M312.783 255.331L310.173 253.969V256.064L312.783 257.426V255.331Z" fill="#588CBA"/>
<path fill-rule="evenodd" clip-rule="evenodd" d="M312.847 249.412L315.52 247.998V250.145L312.847 251.507V249.412Z" fill="#96CEFF"/>
<path fill-rule="evenodd" clip-rule="evenodd" d="M315.52 247.998L312.847 246.636L310.237 247.998L312.847 249.412L315.52 247.998Z" fill="#72AADB"/>
<path fill-rule="evenodd" clip-rule="evenodd" d="M312.847 249.412L310.237 247.998V250.145L312.847 251.507V249.412Z" fill="#588CBA"/>
<path fill-rule="evenodd" clip-rule="evenodd" d="M312.974 243.493L315.584 242.079V244.174L312.974 245.588V243.493Z" fill="#96CEFF"/>
<path fill-rule="evenodd" clip-rule="evenodd" d="M315.584 242.079L312.974 240.717L310.3 242.079L312.974 243.493L315.584 242.079Z" fill="#72AADB"/>
<path fill-rule="evenodd" clip-rule="evenodd" d="M312.974 243.493L310.3 242.079V244.174L312.974 245.588V243.493Z" fill="#588CBA"/>
<path fill-rule="evenodd" clip-rule="evenodd" d="M313.038 237.522L315.647 236.16V238.255L313.038 239.669V237.522Z" fill="#96CEFF"/>
<path fill-rule="evenodd" clip-rule="evenodd" d="M315.647 236.16L313.037 234.798L310.364 236.16L313.037 237.522L315.647 236.16Z" fill="#72AADB"/>
<path fill-rule="evenodd" clip-rule="evenodd" d="M313.037 237.522L310.364 236.16V238.255L313.037 239.669V237.522Z" fill="#588CBA"/>
<path fill-rule="evenodd" clip-rule="evenodd" d="M305.399 259.469L308.009 258.055V260.15L305.399 261.564V259.469Z" fill="#96CEFF"/>
<path fill-rule="evenodd" clip-rule="evenodd" d="M308.009 258.055L305.399 256.693L302.789 258.055L305.399 259.469L308.009 258.055Z" fill="#72AADB"/>
<path fill-rule="evenodd" clip-rule="evenodd" d="M305.399 259.469L302.789 258.055V260.15L305.399 261.564V259.469Z" fill="#588CBA"/>
<path fill-rule="evenodd" clip-rule="evenodd" d="M305.462 253.498L308.136 252.136V254.231L305.462 255.645V253.498Z" fill="#96CEFF"/>
<path fill-rule="evenodd" clip-rule="evenodd" d="M308.135 252.136L305.462 250.774L302.852 252.136L305.462 253.498L308.135 252.136Z" fill="#72AADB"/>
<path fill-rule="evenodd" clip-rule="evenodd" d="M305.462 253.498L302.852 252.136V254.231L305.462 255.645V253.498Z" fill="#588CBA"/>
<path fill-rule="evenodd" clip-rule="evenodd" d="M305.526 247.579L308.2 246.217V248.312L305.526 249.674V247.579Z" fill="#96CEFF"/>
<path fill-rule="evenodd" clip-rule="evenodd" d="M308.199 246.217L305.526 244.802L302.916 246.217L305.526 247.579L308.199 246.217Z" fill="#72AADB"/>
<path fill-rule="evenodd" clip-rule="evenodd" d="M305.526 247.579L302.916 246.217V248.312L305.526 249.674V247.579Z" fill="#588CBA"/>
<path fill-rule="evenodd" clip-rule="evenodd" d="M305.654 241.66L308.264 240.298V242.393L305.654 243.755V241.66Z" fill="#96CEFF"/>
<path fill-rule="evenodd" clip-rule="evenodd" d="M308.264 240.298L305.654 238.883L302.98 240.298L305.654 241.66L308.264 240.298Z" fill="#72AADB"/>
<path fill-rule="evenodd" clip-rule="evenodd" d="M305.654 241.66L302.98 240.298V242.393L305.654 243.755V241.66Z" fill="#588CBA"/>
<path fill-rule="evenodd" clip-rule="evenodd" d="M298.333 263.031L300.943 261.669V263.764L298.333 265.178V263.031Z" fill="#96CEFF"/>
<path fill-rule="evenodd" clip-rule="evenodd" d="M300.944 261.669L298.334 260.307L295.66 261.669L298.334 263.031L300.944 261.669Z" fill="#72AADB"/>
<path fill-rule="evenodd" clip-rule="evenodd" d="M298.334 263.031L295.66 261.669V263.764L298.334 265.178V263.031Z" fill="#588CBA"/>
<path fill-rule="evenodd" clip-rule="evenodd" d="M298.397 257.112L301.007 255.75V257.845L298.397 259.207V257.112Z" fill="#96CEFF"/>
<path fill-rule="evenodd" clip-rule="evenodd" d="M301.007 255.75L298.397 254.336L295.788 255.75L298.397 257.112L301.007 255.75Z" fill="#72AADB"/>
<path fill-rule="evenodd" clip-rule="evenodd" d="M298.397 257.112L295.788 255.75V257.845L298.397 259.207V257.112Z" fill="#588CBA"/>
<path fill-rule="evenodd" clip-rule="evenodd" d="M298.461 251.193L301.134 249.831V251.926L298.461 253.288V251.193Z" fill="#96CEFF"/>
<path fill-rule="evenodd" clip-rule="evenodd" d="M301.134 249.831L298.46 248.417L295.851 249.831L298.46 251.193L301.134 249.831Z" fill="#72AADB"/>
<path fill-rule="evenodd" clip-rule="evenodd" d="M298.46 251.193L295.851 249.831V251.926L298.46 253.288V251.193Z" fill="#588CBA"/>
<path fill-rule="evenodd" clip-rule="evenodd" d="M298.524 245.274L301.198 243.859V246.007L298.524 247.369V245.274Z" fill="#96CEFF"/>
<path fill-rule="evenodd" clip-rule="evenodd" d="M301.198 243.86L298.524 242.498L295.915 243.86L298.524 245.274L301.198 243.86Z" fill="#72AADB"/>
<path fill-rule="evenodd" clip-rule="evenodd" d="M298.524 245.274L295.915 243.859V246.007L298.524 247.369V245.274Z" fill="#588CBA"/>
<path fill-rule="evenodd" clip-rule="evenodd" d="M264.341 220.079C266.06 219.188 267.778 218.298 269.497 217.407C271.216 216.517 272.934 215.626 274.653 214.736C275.162 214.474 275.672 214.212 276.181 213.95C277.327 214.579 278.536 215.155 279.682 215.784C278.6 216.36 277.518 216.884 276.435 217.46C275.035 218.193 273.571 218.926 272.17 219.712C270.77 220.445 269.306 221.179 267.906 221.965C266.696 221.336 265.487 220.707 264.341 220.079Z" fill="#FDCD51"/>
<path fill-rule="evenodd" clip-rule="evenodd" d="M270.643 223.379C271.853 222.75 273.062 222.122 274.208 221.493C275.417 220.864 276.627 220.236 277.773 219.607C279.3 218.822 280.828 218.036 282.356 217.198C283.502 217.826 284.711 218.403 285.857 219.031C284.775 219.555 283.756 220.131 282.674 220.655C281.592 221.179 280.573 221.755 279.491 222.279C277.645 223.222 275.863 224.164 274.017 225.107C272.998 224.583 271.789 224.007 270.643 223.379Z" fill="#FF9642"/>
<path fill-rule="evenodd" clip-rule="evenodd" d="M276.944 226.679C278.918 225.631 280.891 224.636 282.801 223.588C284.774 222.541 286.747 221.546 288.721 220.498C289.866 221.126 291.076 221.703 292.222 222.331C290.63 223.169 289.103 223.955 287.511 224.793C285.92 225.631 284.392 226.417 282.801 227.255C282.037 227.674 281.209 228.093 280.445 228.46C279.3 227.884 278.154 227.255 276.944 226.679Z" fill="#D4DAF2"/>
<path fill-rule="evenodd" clip-rule="evenodd" d="M283.247 229.926C283.565 229.769 283.883 229.56 284.265 229.403C286.047 228.46 287.83 227.517 289.676 226.574C291.458 225.631 293.241 224.688 295.087 223.745C296.232 224.374 297.442 224.95 298.588 225.579C296.614 226.626 294.641 227.622 292.731 228.669C290.758 229.717 288.785 230.712 286.875 231.76C285.602 231.183 284.456 230.555 283.247 229.926Z" fill="#FF0037"/>
<path fill-rule="evenodd" clip-rule="evenodd" d="M278.792 212.588C279.746 212.065 280.765 211.593 281.72 211.069C282.865 211.698 284.075 212.274 285.221 212.903C284.266 213.426 283.247 213.898 282.293 214.422C281.147 213.793 280.001 213.217 278.792 212.588Z" fill="#FF9642"/>
<path fill-rule="evenodd" clip-rule="evenodd" d="M285.093 215.888C286.048 215.365 287.066 214.893 288.021 214.369C289.167 214.998 290.376 215.574 291.522 216.203C290.567 216.727 289.549 217.198 288.594 217.722C287.448 217.093 286.302 216.465 285.093 215.888Z" fill="#FDCD51"/>
<path fill-rule="evenodd" clip-rule="evenodd" d="M291.458 219.136C292.413 218.612 293.432 218.141 294.387 217.617C295.532 218.246 296.742 218.822 297.888 219.45C296.933 219.974 295.914 220.445 294.96 220.969C293.75 220.393 292.604 219.765 291.458 219.136Z" fill="#FF9642"/>
<path fill-rule="evenodd" clip-rule="evenodd" d="M297.761 222.436C298.716 221.912 299.734 221.441 300.689 220.917C301.835 221.545 303.044 222.122 304.19 222.75C303.235 223.274 302.217 223.745 301.262 224.269C300.052 223.693 298.907 223.064 297.761 222.436Z" fill="#8DD0FB"/>
<path fill-rule="evenodd" clip-rule="evenodd" d="M283.947 209.917C284.902 209.393 285.856 208.922 286.875 208.398C288.021 209.027 289.23 209.603 290.376 210.231C289.421 210.755 288.403 211.226 287.448 211.75C286.238 211.122 285.093 210.493 283.947 209.917Z" fill="#8DD0FB"/>
<path fill-rule="evenodd" clip-rule="evenodd" d="M290.249 213.165C291.204 212.641 292.222 212.169 293.177 211.646C294.323 212.274 295.532 212.85 296.678 213.479C295.723 214.003 294.705 214.474 293.75 214.998C292.541 214.422 291.395 213.793 290.249 213.165Z" fill="#8DD0FB"/>
<path fill-rule="evenodd" clip-rule="evenodd" d="M296.551 216.465C297.506 215.941 298.524 215.469 299.479 214.946C300.625 215.574 301.834 216.15 302.98 216.779C302.025 217.303 301.007 217.774 300.052 218.298C298.906 217.669 297.697 217.093 296.551 216.465Z" fill="#D4DAF2"/>
<path fill-rule="evenodd" clip-rule="evenodd" d="M302.852 219.765C303.807 219.241 304.825 218.769 305.78 218.245C306.926 218.874 308.135 219.45 309.281 220.079C308.326 220.603 307.308 221.074 306.353 221.598C305.207 220.969 303.998 220.341 302.852 219.765Z" fill="#FDCD51"/>
<path fill-rule="evenodd" clip-rule="evenodd" d="M192.091 93.3183C193.046 92.8469 193.937 92.3754 194.892 91.8516C195.847 91.3802 196.738 90.9088 197.693 90.385C197.948 90.2278 198.202 90.1231 198.521 89.9659C199.157 90.2802 199.794 90.6469 200.43 90.9612C199.857 91.2754 199.284 91.5897 198.712 91.8516C197.948 92.2707 197.184 92.6373 196.42 93.0564C195.656 93.4754 194.892 93.8421 194.128 94.2611C193.364 93.9992 192.728 93.6849 192.091 93.3183Z" fill="#FDCD51"/>
<path fill-rule="evenodd" clip-rule="evenodd" d="M195.529 95.0992C196.166 94.7849 196.802 94.4182 197.439 94.1039C198.076 93.7896 198.712 93.423 199.412 93.1087C200.24 92.6897 201.067 92.2706 201.895 91.7992C202.531 92.1135 203.168 92.4801 203.805 92.7944C203.232 93.1087 202.659 93.3706 202.086 93.6849C201.513 93.9992 200.94 94.2611 200.367 94.5754C199.412 95.0992 198.394 95.623 197.439 96.0944C196.802 95.7801 196.166 95.4658 195.529 95.0992Z" fill="#FF9642"/>
<path fill-rule="evenodd" clip-rule="evenodd" d="M198.903 96.8802C199.985 96.304 201.003 95.7802 202.086 95.204C203.168 94.6278 204.186 94.104 205.268 93.5278C205.905 93.8421 206.542 94.2088 207.178 94.5231C206.351 94.9421 205.459 95.4135 204.632 95.8326C203.804 96.2516 202.913 96.723 202.086 97.1421C201.64 97.3516 201.258 97.5611 200.813 97.823C200.176 97.5611 199.539 97.2468 198.903 96.8802Z" fill="#D4DAF2"/>
<path fill-rule="evenodd" clip-rule="evenodd" d="M202.34 98.661C202.531 98.5563 202.722 98.4515 202.85 98.3991C203.804 97.8753 204.823 97.4039 205.778 96.8801C206.733 96.3563 207.751 95.8849 208.706 95.3611C209.342 95.6754 209.979 96.042 210.616 96.3563C209.533 96.9325 208.515 97.4563 207.433 98.0325C206.351 98.6087 205.332 99.1325 204.25 99.7087C203.613 99.342 202.977 98.9753 202.34 98.661Z" fill="#FF0037"/>
<path fill-rule="evenodd" clip-rule="evenodd" d="M199.921 89.285C200.431 89.0231 201.004 88.7612 201.513 88.4469C202.149 88.7612 202.786 89.1278 203.422 89.4421C202.913 89.704 202.34 89.9659 201.831 90.2802C201.195 89.9659 200.558 89.5993 199.921 89.285Z" fill="#FF9642"/>
<path fill-rule="evenodd" clip-rule="evenodd" d="M203.358 91.0659C203.868 90.804 204.441 90.5421 204.95 90.2278C205.586 90.5421 206.223 90.9087 206.859 91.223C206.35 91.4849 205.777 91.7468 205.268 92.0611C204.632 91.7468 203.995 91.3801 203.358 91.0659Z" fill="#FDCD51"/>
<path fill-rule="evenodd" clip-rule="evenodd" d="M206.732 92.8469C207.242 92.585 207.815 92.3231 208.324 92.0088C208.96 92.3231 209.597 92.6897 210.233 93.004C209.724 93.2659 209.151 93.5278 208.642 93.8421C208.006 93.4754 207.369 93.1612 206.732 92.8469Z" fill="#FF9642"/>
<path fill-rule="evenodd" clip-rule="evenodd" d="M210.17 94.6278C210.68 94.3659 211.253 94.104 211.762 93.7897C212.398 94.104 213.035 94.4706 213.671 94.7849C213.162 95.0468 212.589 95.3087 212.08 95.623C211.444 95.2563 210.807 94.942 210.17 94.6278Z" fill="#8DD0FB"/>
<path fill-rule="evenodd" clip-rule="evenodd" d="M202.723 87.8183C203.232 87.5564 203.741 87.2945 204.314 86.9802C204.951 87.2945 205.587 87.6612 206.224 87.9754C205.714 88.2374 205.142 88.4993 204.632 88.8135C203.932 88.4993 203.359 88.1326 202.723 87.8183Z" fill="#8DD0FB"/>
<path fill-rule="evenodd" clip-rule="evenodd" d="M206.096 89.5992C206.605 89.3373 207.178 89.0754 207.687 88.7611C208.324 89.0754 208.96 89.4421 209.597 89.7563C209.088 90.0182 208.515 90.2801 208.005 90.5944C207.369 90.2801 206.732 89.9135 206.096 89.5992Z" fill="#8DD0FB"/>
<path fill-rule="evenodd" clip-rule="evenodd" d="M209.534 91.3802C210.043 91.1183 210.616 90.8564 211.125 90.5421C211.762 90.8564 212.398 91.2231 213.035 91.5373C212.526 91.7992 211.953 92.0611 211.443 92.3754C210.807 92.0611 210.17 91.6945 209.534 91.3802Z" fill="#D4DAF2"/>
<path fill-rule="evenodd" clip-rule="evenodd" d="M212.907 93.1611C213.416 92.8992 213.989 92.6373 214.499 92.323C215.135 92.6373 215.772 93.0039 216.408 93.3182C215.899 93.5801 215.326 93.842 214.817 94.1563C214.18 93.842 213.544 93.4754 212.907 93.1611Z" fill="#FDCD51"/>
<path fill-rule="evenodd" clip-rule="evenodd" d="M145.114 245.431C146.069 244.96 146.96 244.488 147.915 243.964C148.87 243.493 149.761 243.021 150.716 242.498C150.971 242.341 151.225 242.236 151.543 242.079C152.18 242.393 152.817 242.76 153.453 243.074C152.88 243.388 152.307 243.702 151.734 243.964C150.971 244.383 150.207 244.75 149.443 245.169C148.679 245.588 147.915 245.955 147.151 246.374C146.387 246.112 145.751 245.745 145.114 245.431Z" fill="#FDCD51"/>
<path fill-rule="evenodd" clip-rule="evenodd" d="M148.552 247.212C149.188 246.898 149.825 246.531 150.461 246.217C151.098 245.902 151.735 245.536 152.435 245.221C153.262 244.802 154.09 244.383 154.917 243.912C155.554 244.226 156.19 244.593 156.827 244.907C156.254 245.221 155.681 245.483 155.108 245.798C154.535 246.112 153.962 246.374 153.39 246.688C152.435 247.212 151.416 247.736 150.461 248.207C149.825 247.893 149.188 247.526 148.552 247.212Z" fill="#FF9642"/>
<path fill-rule="evenodd" clip-rule="evenodd" d="M151.926 248.993C153.008 248.417 154.026 247.893 155.109 247.317C156.191 246.74 157.209 246.217 158.291 245.64C158.928 245.955 159.564 246.321 160.201 246.636C159.374 247.055 158.482 247.526 157.655 247.945C156.827 248.364 155.936 248.836 155.109 249.255C154.663 249.464 154.281 249.674 153.835 249.936C153.199 249.674 152.562 249.307 151.926 248.993Z" fill="#D4DAF2"/>
<path fill-rule="evenodd" clip-rule="evenodd" d="M155.362 250.774C155.553 250.669 155.744 250.564 155.872 250.512C156.826 249.988 157.845 249.517 158.8 248.993C159.755 248.469 160.773 247.998 161.728 247.474C162.364 247.788 163.001 248.155 163.638 248.469C162.555 249.045 161.537 249.569 160.455 250.145C159.373 250.721 158.354 251.245 157.272 251.821C156.635 251.455 155.999 251.088 155.362 250.774Z" fill="#FF0037"/>
<path fill-rule="evenodd" clip-rule="evenodd" d="M152.943 241.398C153.453 241.136 154.026 240.874 154.535 240.56C155.171 240.874 155.808 241.241 156.444 241.555C155.935 241.817 155.362 242.079 154.853 242.393C154.216 242.026 153.58 241.712 152.943 241.398Z" fill="#FF9642"/>
<path fill-rule="evenodd" clip-rule="evenodd" d="M156.381 243.179C156.89 242.917 157.463 242.655 157.972 242.341C158.609 242.655 159.245 243.021 159.882 243.336C159.373 243.598 158.8 243.86 158.291 244.174C157.654 243.807 157.017 243.493 156.381 243.179Z" fill="#FDCD51"/>
<path fill-rule="evenodd" clip-rule="evenodd" d="M159.755 244.96C160.264 244.698 160.837 244.436 161.346 244.121C161.983 244.436 162.619 244.802 163.256 245.117C162.747 245.379 162.174 245.64 161.665 245.955C161.028 245.588 160.391 245.274 159.755 244.96Z" fill="#FF9642"/>
<path fill-rule="evenodd" clip-rule="evenodd" d="M163.192 246.688C163.702 246.426 164.275 246.164 164.784 245.85C165.42 246.164 166.057 246.531 166.693 246.845C166.184 247.107 165.611 247.369 165.102 247.683C164.465 247.369 163.829 247.055 163.192 246.688Z" fill="#8DD0FB"/>
<path fill-rule="evenodd" clip-rule="evenodd" d="M155.681 239.931C156.19 239.669 156.699 239.407 157.272 239.093C157.909 239.407 158.545 239.774 159.182 240.088C158.672 240.35 158.1 240.612 157.59 240.926C156.954 240.56 156.317 240.245 155.681 239.931Z" fill="#8DD0FB"/>
<path fill-rule="evenodd" clip-rule="evenodd" d="M159.118 241.712C159.627 241.45 160.2 241.188 160.71 240.874C161.346 241.188 161.983 241.555 162.619 241.869C162.11 242.131 161.537 242.393 161.028 242.707C160.391 242.34 159.755 242.026 159.118 241.712Z" fill="#8DD0FB"/>
<path fill-rule="evenodd" clip-rule="evenodd" d="M162.556 243.493C163.065 243.231 163.638 242.969 164.147 242.655C164.784 242.969 165.42 243.336 166.057 243.65C165.547 243.912 164.975 244.174 164.465 244.488C163.829 244.121 163.192 243.807 162.556 243.493Z" fill="#D4DAF2"/>
<path fill-rule="evenodd" clip-rule="evenodd" d="M165.93 245.274C166.439 245.012 167.012 244.75 167.521 244.436C168.158 244.75 168.794 245.117 169.431 245.431C168.922 245.693 168.349 245.955 167.839 246.269C167.203 245.902 166.566 245.588 165.93 245.274Z" fill="#FDCD51"/>
<path fill-rule="evenodd" clip-rule="evenodd" d="M342.956 348.096C343.911 347.625 344.802 347.154 345.757 346.63C346.712 346.158 347.603 345.687 348.558 345.163C348.812 345.006 349.067 344.901 349.385 344.744C350.022 345.058 350.658 345.425 351.295 345.739C350.722 346.054 350.149 346.368 349.576 346.63C348.812 347.049 348.049 347.416 347.285 347.835C346.521 348.254 345.757 348.62 344.993 349.039C344.229 348.725 343.593 348.411 342.956 348.096Z" fill="#FDCD51"/>
<path fill-rule="evenodd" clip-rule="evenodd" d="M346.394 349.877C347.03 349.563 347.667 349.197 348.303 348.882C348.94 348.568 349.576 348.201 350.277 347.887C351.104 347.468 351.932 347.049 352.759 346.578C353.396 346.892 354.032 347.258 354.669 347.573C354.096 347.887 353.523 348.149 352.95 348.463C352.377 348.777 351.804 349.039 351.231 349.354C350.277 349.877 349.258 350.401 348.303 350.873C347.667 350.506 347.03 350.192 346.394 349.877Z" fill="#FF9642"/>
<path fill-rule="evenodd" clip-rule="evenodd" d="M349.767 351.658C350.849 351.082 351.868 350.558 352.95 349.982C354.032 349.406 355.051 348.882 356.133 348.306C356.769 348.62 357.406 348.987 358.042 349.301C357.215 349.72 356.324 350.192 355.496 350.611C354.669 351.03 353.777 351.501 352.95 351.92C352.504 352.13 352.122 352.339 351.677 352.601C351.04 352.287 350.404 351.973 349.767 351.658Z" fill="#D4DAF2"/>
<path fill-rule="evenodd" clip-rule="evenodd" d="M353.205 353.387C353.396 353.282 353.587 353.177 353.714 353.125C354.669 352.601 355.687 352.13 356.642 351.606C357.597 351.082 358.615 350.611 359.57 350.087C360.207 350.401 360.843 350.768 361.48 351.082C360.398 351.658 359.379 352.182 358.297 352.758C357.215 353.335 356.196 353.858 355.114 354.435C354.478 354.068 353.841 353.754 353.205 353.387Z" fill="#FF0037"/>
<path fill-rule="evenodd" clip-rule="evenodd" d="M350.786 344.011C351.295 343.749 351.868 343.487 352.378 343.173C353.014 343.487 353.651 343.854 354.287 344.168C353.778 344.43 353.205 344.692 352.696 345.006C352.059 344.692 351.423 344.377 350.786 344.011Z" fill="#FF9642"/>
<path fill-rule="evenodd" clip-rule="evenodd" d="M354.223 345.792C354.732 345.53 355.305 345.268 355.815 344.954C356.451 345.268 357.088 345.635 357.724 345.949C357.215 346.211 356.642 346.473 356.133 346.787C355.496 346.473 354.86 346.106 354.223 345.792Z" fill="#FDCD51"/>
<path fill-rule="evenodd" clip-rule="evenodd" d="M357.597 347.573C358.106 347.311 358.679 347.049 359.188 346.735C359.825 347.049 360.461 347.416 361.098 347.73C360.589 347.992 360.016 348.254 359.506 348.568C358.87 348.254 358.233 347.887 357.597 347.573Z" fill="#FF9642"/>
<path fill-rule="evenodd" clip-rule="evenodd" d="M361.035 349.354C361.544 349.092 362.117 348.83 362.626 348.516C363.263 348.83 363.899 349.196 364.536 349.511C364.026 349.773 363.454 350.035 362.944 350.349C362.308 350.035 361.671 349.668 361.035 349.354Z" fill="#8DD0FB"/>
<path fill-rule="evenodd" clip-rule="evenodd" d="M353.586 342.544C354.096 342.282 354.605 342.02 355.178 341.706C355.814 342.02 356.451 342.387 357.087 342.701C356.578 342.963 356.005 343.225 355.496 343.539C354.796 343.225 354.223 342.911 353.586 342.544Z" fill="#8DD0FB"/>
<path fill-rule="evenodd" clip-rule="evenodd" d="M356.96 344.325C357.47 344.063 358.043 343.801 358.552 343.487C359.188 343.801 359.825 344.168 360.462 344.482C359.952 344.744 359.379 345.006 358.87 345.32C358.234 345.006 357.597 344.692 356.96 344.325Z" fill="#8DD0FB"/>
<path fill-rule="evenodd" clip-rule="evenodd" d="M360.398 346.106C360.907 345.844 361.48 345.582 361.989 345.268C362.626 345.582 363.262 345.949 363.899 346.263C363.39 346.525 362.817 346.787 362.308 347.101C361.671 346.787 361.035 346.473 360.398 346.106Z" fill="#D4DAF2"/>
<path fill-rule="evenodd" clip-rule="evenodd" d="M363.771 347.887C364.281 347.625 364.854 347.363 365.363 347.049C365.999 347.363 366.636 347.73 367.273 348.044C366.763 348.306 366.19 348.568 365.681 348.882C365.045 348.568 364.408 348.254 363.771 347.887Z" fill="#FDCD51"/>
<path fill-rule="evenodd" clip-rule="evenodd" d="M388.024 237.102C388.979 236.631 389.87 236.16 390.825 235.636C391.78 235.164 392.671 234.693 393.626 234.169C393.881 234.012 394.135 233.907 394.454 233.75C395.09 234.064 395.727 234.431 396.363 234.745C395.79 235.06 395.218 235.374 394.645 235.636C393.881 236.055 393.117 236.422 392.353 236.841C391.589 237.26 390.825 237.626 390.061 238.045C389.298 237.731 388.661 237.417 388.024 237.102Z" fill="#FDCD51"/>
<path fill-rule="evenodd" clip-rule="evenodd" d="M391.462 238.831C392.098 238.517 392.735 238.15 393.372 237.836C394.008 237.522 394.645 237.155 395.345 236.841C396.172 236.422 397 236.003 397.827 235.531C398.464 235.845 399.101 236.212 399.737 236.526C399.164 236.841 398.591 237.103 398.018 237.417C397.446 237.731 396.873 237.993 396.3 238.307C395.345 238.831 394.326 239.355 393.372 239.826C392.735 239.512 392.098 239.198 391.462 238.831Z" fill="#FF9642"/>
<path fill-rule="evenodd" clip-rule="evenodd" d="M394.899 240.612C395.982 240.036 397 239.512 398.082 238.936C399.164 238.36 400.183 237.836 401.265 237.26C401.902 237.574 402.538 237.941 403.175 238.255C402.347 238.674 401.456 239.145 400.628 239.564C399.801 239.983 398.91 240.455 398.082 240.874C397.637 241.083 397.255 241.293 396.809 241.555C396.173 241.293 395.536 240.979 394.899 240.612Z" fill="#D4DAF2"/>
<path fill-rule="evenodd" clip-rule="evenodd" d="M398.273 242.393C398.464 242.288 398.655 242.183 398.783 242.131C399.738 241.607 400.756 241.136 401.711 240.612C402.666 240.088 403.684 239.617 404.639 239.093C405.276 239.407 405.912 239.774 406.549 240.088C405.467 240.664 404.448 241.188 403.366 241.764C402.284 242.34 401.265 242.864 400.183 243.44C399.547 243.074 398.91 242.76 398.273 242.393Z" fill="#FF0037"/>
<path fill-rule="evenodd" clip-rule="evenodd" d="M395.854 233.017C396.363 232.755 396.936 232.493 397.445 232.179C398.082 232.493 398.719 232.86 399.355 233.174C398.846 233.436 398.273 233.698 397.764 234.012C397.127 233.698 396.491 233.331 395.854 233.017Z" fill="#FF9642"/>
<path fill-rule="evenodd" clip-rule="evenodd" d="M399.291 234.798C399.8 234.536 400.373 234.274 400.882 233.96C401.519 234.274 402.156 234.641 402.792 234.955C402.283 235.217 401.71 235.479 401.201 235.793C400.564 235.479 399.928 235.112 399.291 234.798Z" fill="#FDCD51"/>
<path fill-rule="evenodd" clip-rule="evenodd" d="M402.729 236.579C403.238 236.317 403.811 236.055 404.32 235.741C404.957 236.055 405.594 236.422 406.23 236.736C405.721 236.998 405.148 237.26 404.639 237.574C404.002 237.26 403.366 236.893 402.729 236.579Z" fill="#FF9642"/>
<path fill-rule="evenodd" clip-rule="evenodd" d="M406.103 238.36C406.612 238.098 407.185 237.836 407.694 237.521C408.33 237.836 408.967 238.202 409.604 238.517C409.094 238.779 408.521 239.041 408.012 239.355C407.376 239.041 406.739 238.674 406.103 238.36Z" fill="#8DD0FB"/>
<path fill-rule="evenodd" clip-rule="evenodd" d="M398.654 231.55C399.164 231.288 399.673 231.026 400.246 230.712C400.882 231.026 401.519 231.393 402.155 231.707C401.646 231.969 401.073 232.231 400.564 232.545C399.927 232.231 399.291 231.917 398.654 231.55Z" fill="#8DD0FB"/>
<path fill-rule="evenodd" clip-rule="evenodd" d="M402.029 233.331C402.538 233.069 403.111 232.807 403.62 232.493C404.257 232.807 404.893 233.174 405.53 233.488C405.021 233.75 404.448 234.012 403.938 234.326C403.302 234.012 402.665 233.698 402.029 233.331Z" fill="#8DD0FB"/>
<path fill-rule="evenodd" clip-rule="evenodd" d="M405.466 235.112C405.976 234.85 406.548 234.588 407.058 234.274C407.694 234.588 408.331 234.955 408.967 235.269C408.458 235.531 407.885 235.793 407.376 236.107C406.739 235.793 406.103 235.426 405.466 235.112Z" fill="#D4DAF2"/>
<path fill-rule="evenodd" clip-rule="evenodd" d="M408.903 236.893C409.413 236.631 409.985 236.369 410.495 236.055C411.131 236.369 411.768 236.736 412.404 237.05C411.895 237.312 411.322 237.574 410.813 237.888C410.176 237.574 409.54 237.207 408.903 236.893Z" fill="#FDCD51"/>
<path fill-rule="evenodd" clip-rule="evenodd" d="M130.409 166.494L106.793 154.08C105.01 153.137 103.419 153.084 103.419 154.918V157.118C103.419 158.479 105.074 159.37 106.411 160.103L127.672 171.26C130.282 172.622 133.401 174.141 133.401 171.679V170.265C133.337 168.117 132.573 167.646 130.409 166.494Z" fill="#792EED"/>
<path d="M129.9 167.175L106.283 154.813C105.647 154.499 105.138 154.289 104.756 154.289C104.692 154.289 104.628 154.289 104.565 154.289C104.565 154.289 104.501 154.289 104.501 154.341C104.437 154.446 104.374 154.656 104.374 154.918V157.118C104.374 157.537 104.692 157.956 105.074 158.27C105.583 158.689 106.283 159.108 106.92 159.422L128.181 170.579C129.39 171.208 130.791 171.889 131.746 172.151C132.128 172.256 132.446 172.151 132.446 171.679V170.265C132.446 169.375 132.319 168.851 131.937 168.484C131.555 168.065 130.855 167.698 129.9 167.175ZM107.302 153.451L130.918 165.865C132.128 166.494 132.892 166.913 133.464 167.594C134.037 168.275 134.356 169.06 134.356 170.317V171.732C134.356 173.722 133.082 174.141 131.236 173.722C130.027 173.46 128.499 172.675 127.099 171.994L105.838 160.837C105.138 160.47 104.31 159.999 103.674 159.475C102.91 158.846 102.4 158.113 102.4 157.17V154.97C102.4 154.341 102.528 153.87 102.846 153.503C103.037 153.241 103.355 153.032 103.674 152.875C103.992 152.77 104.31 152.665 104.692 152.665C105.52 152.665 106.411 152.98 107.302 153.451Z" fill="#393185"/>
<path fill-rule="evenodd" clip-rule="evenodd" d="M404.575 297.288V245.64L409.286 248.102V306.716L404.575 304.254V297.288ZM413.996 297.288V245.64L409.286 248.102V306.716L413.996 304.254V297.288Z" fill="url(#paint0_linear_301_253)"/>
<path fill-rule="evenodd" clip-rule="evenodd" d="M435.448 313.316V261.616L440.158 264.078V322.692L435.448 320.23V313.316ZM444.869 313.316V261.616L440.158 264.078V322.692L444.869 320.23V313.316Z" fill="url(#paint1_linear_301_253)"/>
<path fill-rule="evenodd" clip-rule="evenodd" d="M466.321 297.183V245.536L471.031 247.998V306.611L466.321 304.149V297.183ZM475.742 297.183V245.536L471.031 247.998V306.611L475.742 304.149V297.183Z" fill="url(#paint2_linear_301_253)"/>
<path fill-rule="evenodd" clip-rule="evenodd" d="M282.674 230.031V178.384L287.385 180.846V239.46L282.674 236.998V230.031ZM292.159 230.031V178.384L287.449 180.846V239.46L292.159 236.998V230.031Z" fill="url(#paint3_linear_301_253)"/>
<path fill-rule="evenodd" clip-rule="evenodd" d="M250.782 213.322V161.675L255.493 164.137V222.75L250.782 220.236V213.322ZM260.267 213.322V161.675L255.556 164.137V222.75L260.267 220.288V213.322Z" fill="url(#paint4_linear_301_253)"/>
<path fill-rule="evenodd" clip-rule="evenodd" d="M282.674 196.56V144.913L287.385 147.375V205.989L282.674 203.527V196.56ZM292.159 196.56V144.913L287.449 147.375V205.989L292.159 203.527V196.56Z" fill="url(#paint5_linear_301_253)"/>
<path fill-rule="evenodd" clip-rule="evenodd" d="M314.566 213.322V161.675L319.276 164.137V222.75L314.566 220.288V213.322ZM324.051 213.322V161.675L319.34 164.137V222.75L324.051 220.288V213.322Z" fill="url(#paint6_linear_301_253)"/>
<path fill-rule="evenodd" clip-rule="evenodd" d="M428.319 145.332V93.6849L433.029 96.1468V154.76L428.319 152.299V145.332ZM437.804 145.332V93.6849L433.093 96.1468V154.76L437.804 152.299V145.332Z" fill="url(#paint7_linear_301_253)"/>
<path fill-rule="evenodd" clip-rule="evenodd" d="M397.445 129.251V77.6041L402.156 80.066V138.68L397.445 136.218V129.251ZM406.93 129.251V77.6041L402.219 80.066V138.68L406.93 136.218V129.251Z" fill="url(#paint8_linear_301_253)"/>
<path fill-rule="evenodd" clip-rule="evenodd" d="M428.319 113.118V61.4709L433.029 63.9328V122.546L428.319 120.085V113.118ZM437.804 113.118V61.4709L433.093 63.9328V122.546L437.804 120.085V113.118Z" fill="url(#paint9_linear_301_253)"/>
<path fill-rule="evenodd" clip-rule="evenodd" d="M459.191 129.251V77.6041L463.902 80.066V138.68L459.191 136.218V129.251ZM468.612 129.251V77.6041L463.902 80.066V138.68L468.612 136.218V129.251Z" fill="url(#paint10_linear_301_253)"/>
<path fill-rule="evenodd" clip-rule="evenodd" d="M142.567 313.264V261.616L147.278 264.078V322.692L142.567 320.23V313.264ZM151.988 313.264V261.616L147.278 264.078V322.692L151.988 320.23V313.264Z" fill="url(#paint11_linear_301_253)"/>
<path fill-rule="evenodd" clip-rule="evenodd" d="M111.695 297.183V245.536L116.406 247.998V306.611L111.695 304.149V297.183ZM121.116 297.183V245.536L116.406 247.998V306.611L121.116 304.149V297.183Z" fill="url(#paint12_linear_301_253)"/>
<path fill-rule="evenodd" clip-rule="evenodd" d="M142.567 281.102V229.455L147.278 231.917V290.531L142.567 288.069V281.102ZM151.988 281.102V229.455L147.278 231.917V290.531L151.988 288.069V281.102Z" fill="url(#paint13_linear_301_253)"/>
<path fill-rule="evenodd" clip-rule="evenodd" d="M173.44 297.183V245.536L178.151 247.998V306.611L173.44 304.149V297.183ZM182.861 297.183V245.536L178.151 247.998V306.611L182.861 304.149V297.183Z" fill="url(#paint14_linear_301_253)"/>
<path fill-rule="evenodd" clip-rule="evenodd" d="M135.438 145.332V93.6849L140.149 96.1468V154.76L135.438 152.299V145.332ZM144.86 145.332V93.6849L140.149 96.1468V154.76L144.86 152.299V145.332Z" fill="url(#paint15_linear_301_253)"/>
<path fill-rule="evenodd" clip-rule="evenodd" d="M104.564 129.251V77.6041L109.275 80.066V138.68L104.564 136.218V129.251ZM113.986 129.251V77.6041L109.275 80.066V138.68L113.986 136.218V129.251Z" fill="url(#paint16_linear_301_253)"/>
<path fill-rule="evenodd" clip-rule="evenodd" d="M135.438 113.118V61.4709L140.149 63.9328V122.546L135.438 120.085V113.118ZM144.86 113.118V61.4709L140.149 63.9328V122.546L144.86 120.085V113.118Z" fill="url(#paint17_linear_301_253)"/>
<path fill-rule="evenodd" clip-rule="evenodd" d="M166.312 129.251V77.6041L171.022 80.066V138.68L166.312 136.218V129.251ZM175.733 129.251V77.6041L171.022 80.066V138.68L175.733 136.218V129.251Z" fill="url(#paint18_linear_301_253)"/>
<path fill-rule="evenodd" clip-rule="evenodd" d="M282.101 68.0709V17L286.812 19.4619V77.4994L282.101 75.0375V68.0709ZM291.522 68.0709V17L286.812 19.4619V77.4994L291.522 75.0375V68.0709Z" fill="url(#paint19_linear_301_253)"/>
<path fill-rule="evenodd" clip-rule="evenodd" d="M251.229 51.99V17.7856L255.939 20.2475V61.3661L251.229 58.9043V51.99ZM260.713 51.99V17.7856L256.003 20.2475V61.3661L260.713 58.9043V51.99Z" fill="url(#paint20_linear_301_253)"/>
<path fill-rule="evenodd" clip-rule="evenodd" d="M282.101 35.857V17.8905L286.812 20.3524V45.2855L282.101 42.8236V35.857ZM291.522 35.857V17.8905L286.812 20.3524V45.2855L291.522 42.8236V35.857Z" fill="url(#paint21_linear_301_253)"/>
<path fill-rule="evenodd" clip-rule="evenodd" d="M312.974 51.9902V17.7858L317.685 20.2476V61.3663L312.974 58.9044V51.9902ZM322.395 51.9902V17.7858L317.685 20.2476V61.3663L322.395 58.9044V51.9902Z" fill="url(#paint22_linear_301_253)"/>
<path fill-rule="evenodd" clip-rule="evenodd" d="M282.101 397.177V345.53L286.812 347.992V406.605L282.101 404.144V397.177ZM291.522 397.177V345.53L286.812 347.992V406.605L291.522 404.144V397.177Z" fill="url(#paint23_linear_301_253)"/>
<path fill-rule="evenodd" clip-rule="evenodd" d="M251.229 381.096V329.449L255.939 331.911V390.525L251.229 388.063V381.096ZM260.65 381.096V329.449L255.939 331.911V390.525L260.65 388.063V381.096Z" fill="url(#paint24_linear_301_253)"/>
<path fill-rule="evenodd" clip-rule="evenodd" d="M282.101 364.963V313.316L286.812 315.778V374.392L282.101 371.93V364.963ZM291.522 364.963V313.316L286.812 315.778V374.392L291.522 371.93V364.963Z" fill="url(#paint25_linear_301_253)"/>
<path fill-rule="evenodd" clip-rule="evenodd" d="M312.974 381.096V329.449L317.685 331.911V390.525L312.974 388.063V381.096ZM322.395 381.096V329.449L317.685 331.911V390.525L322.395 388.063V381.096Z" fill="url(#paint26_linear_301_253)"/>
<path fill-rule="evenodd" clip-rule="evenodd" d="M435.448 281.102V229.455L440.158 231.917V290.531L435.448 288.069V281.102ZM444.869 281.102V229.455L440.158 231.917V290.531L444.869 288.069V281.102Z" fill="url(#paint27_linear_301_253)"/>
<defs>
<linearGradient id="paint0_linear_301_253" x1="409.292" y1="248.246" x2="409.292" y2="318.734" gradientUnits="userSpaceOnUse">
<stop stop-color="#572975"/>
<stop offset="1" stop-color="#FF31FF"/>
</linearGradient>
<linearGradient id="paint1_linear_301_253" x1="440.159" y1="264.268" x2="440.159" y2="334.756" gradientUnits="userSpaceOnUse">
<stop stop-color="#572975"/>
<stop offset="1" stop-color="#FF31FF"/>
</linearGradient>
<linearGradient id="paint2_linear_301_253" x1="471.028" y1="245.521" x2="471.028" y2="306.613" gradientUnits="userSpaceOnUse">
<stop stop-color="#572975"/>
<stop offset="1" stop-color="#FF31FF"/>
</linearGradient>
<linearGradient id="paint3_linear_301_253" x1="287.415" y1="178.383" x2="287.415" y2="239.475" gradientUnits="userSpaceOnUse">
<stop stop-color="#572975"/>
<stop offset="1" stop-color="#FF31FF"/>
</linearGradient>
<linearGradient id="paint4_linear_301_253" x1="255.529" y1="161.643" x2="255.529" y2="222.735" gradientUnits="userSpaceOnUse">
<stop stop-color="#572975"/>
<stop offset="1" stop-color="#FF31FF"/>
</linearGradient>
<linearGradient id="paint5_linear_301_253" x1="287.415" y1="144.903" x2="287.415" y2="205.995" gradientUnits="userSpaceOnUse">
<stop stop-color="#572975"/>
<stop offset="1" stop-color="#FF31FF"/>
</linearGradient>
<linearGradient id="paint6_linear_301_253" x1="319.3" y1="161.643" x2="319.3" y2="222.735" gradientUnits="userSpaceOnUse">
<stop stop-color="#572975"/>
<stop offset="1" stop-color="#FF31FF"/>
</linearGradient>
<linearGradient id="paint7_linear_301_253" x1="433.055" y1="93.6732" x2="433.055" y2="154.765" gradientUnits="userSpaceOnUse">
<stop stop-color="#572975"/>
<stop offset="1" stop-color="#FF31FF"/>
</linearGradient>
<linearGradient id="paint8_linear_301_253" x1="402.187" y1="77.5708" x2="402.187" y2="138.663" gradientUnits="userSpaceOnUse">
<stop stop-color="#572975"/>
<stop offset="1" stop-color="#FF31FF"/>
</linearGradient>
<linearGradient id="paint9_linear_301_253" x1="433.055" y1="61.4674" x2="433.055" y2="122.559" gradientUnits="userSpaceOnUse">
<stop stop-color="#572975"/>
<stop offset="1" stop-color="#FF31FF"/>
</linearGradient>
<linearGradient id="paint10_linear_301_253" x1="463.923" y1="77.5701" x2="463.923" y2="138.662" gradientUnits="userSpaceOnUse">
<stop stop-color="#572975"/>
<stop offset="1" stop-color="#FF31FF"/>
</linearGradient>
<linearGradient id="paint11_linear_301_253" x1="147.263" y1="261.624" x2="147.263" y2="322.715" gradientUnits="userSpaceOnUse">
<stop stop-color="#572975"/>
<stop offset="1" stop-color="#FF31FF"/>
</linearGradient>
<linearGradient id="paint12_linear_301_253" x1="116.397" y1="245.521" x2="116.397" y2="306.613" gradientUnits="userSpaceOnUse">
<stop stop-color="#572975"/>
<stop offset="1" stop-color="#FF31FF"/>
</linearGradient>
<linearGradient id="paint13_linear_301_253" x1="147.263" y1="229.418" x2="147.263" y2="290.51" gradientUnits="userSpaceOnUse">
<stop stop-color="#572975"/>
<stop offset="1" stop-color="#FF31FF"/>
</linearGradient>
<linearGradient id="paint14_linear_301_253" x1="178.131" y1="245.521" x2="178.131" y2="306.613" gradientUnits="userSpaceOnUse">
<stop stop-color="#572975"/>
<stop offset="1" stop-color="#FF31FF"/>
</linearGradient>
<linearGradient id="paint15_linear_301_253" x1="140.158" y1="93.6724" x2="140.158" y2="154.764" gradientUnits="userSpaceOnUse">
<stop stop-color="#572975"/>
<stop offset="1" stop-color="#FF31FF"/>
</linearGradient>
<linearGradient id="paint16_linear_301_253" x1="109.29" y1="84.7537" x2="109.29" y2="145.845" gradientUnits="userSpaceOnUse">
<stop stop-color="#572975"/>
<stop offset="1" stop-color="#FF31FF"/>
</linearGradient>
<linearGradient id="paint17_linear_301_253" x1="140.159" y1="61.4667" x2="140.159" y2="122.558" gradientUnits="userSpaceOnUse">
<stop stop-color="#572975"/>
<stop offset="1" stop-color="#FF31FF"/>
</linearGradient>
<linearGradient id="paint18_linear_301_253" x1="171.027" y1="77.5701" x2="171.027" y2="138.662" gradientUnits="userSpaceOnUse">
<stop stop-color="#572975"/>
<stop offset="1" stop-color="#FF31FF"/>
</linearGradient>
<linearGradient id="paint19_linear_301_253" x1="286.829" y1="17" x2="286.829" y2="77.4931" gradientUnits="userSpaceOnUse">
<stop stop-color="#572975"/>
<stop offset="1" stop-color="#FF31FF"/>
</linearGradient>
<linearGradient id="paint20_linear_301_253" x1="255.962" y1="17.8008" x2="255.962" y2="61.3908" gradientUnits="userSpaceOnUse">
<stop stop-color="#572975"/>
<stop offset="1" stop-color="#FF31FF"/>
</linearGradient>
<linearGradient id="paint21_linear_301_253" x1="286.829" y1="17.8852" x2="286.829" y2="45.2874" gradientUnits="userSpaceOnUse">
<stop stop-color="#572975"/>
<stop offset="1" stop-color="#FF31FF"/>
</linearGradient>
<linearGradient id="paint22_linear_301_253" x1="317.697" y1="17.801" x2="317.697" y2="61.3909" gradientUnits="userSpaceOnUse">
<stop stop-color="#572975"/>
<stop offset="1" stop-color="#FF31FF"/>
</linearGradient>
<linearGradient id="paint23_linear_301_253" x1="286.825" y1="345.526" x2="286.825" y2="406.618" gradientUnits="userSpaceOnUse">
<stop stop-color="#572975"/>
<stop offset="1" stop-color="#FF31FF"/>
</linearGradient>
<linearGradient id="paint24_linear_301_253" x1="255.958" y1="329.423" x2="255.958" y2="390.515" gradientUnits="userSpaceOnUse">
<stop stop-color="#572975"/>
<stop offset="1" stop-color="#FF31FF"/>
</linearGradient>
<linearGradient id="paint25_linear_301_253" x1="286.798" y1="313.32" x2="286.798" y2="374.412" gradientUnits="userSpaceOnUse">
<stop stop-color="#572975"/>
<stop offset="1" stop-color="#FF31FF"/>
</linearGradient>
<linearGradient id="paint26_linear_301_253" x1="317.694" y1="329.423" x2="317.694" y2="390.515" gradientUnits="userSpaceOnUse">
<stop stop-color="#572975"/>
<stop offset="1" stop-color="#FF31FF"/>
</linearGradient>
<linearGradient id="paint27_linear_301_253" x1="440.159" y1="232.062" x2="440.159" y2="302.55" gradientUnits="userSpaceOnUse">
<stop stop-color="#572975"/>
<stop offset="1" stop-color="#FF31FF"/>
</linearGradient>
</defs>
</svg>
