<svg width="200" height="31" viewBox="0 0 200 31" fill="none" xmlns="http://www.w3.org/2000/svg">
<path d="M45.8071 17.9061C45.5765 17.6755 45.3087 17.456 45.0074 17.2496C45.3031 16.9613 45.5505 16.6544 45.7495 16.3271C46.2814 15.4512 46.5454 14.5306 46.5454 13.5672C46.5454 12.2095 46.2609 11.0528 45.6899 10.0987C45.119 9.14462 44.2914 8.41186 43.2108 7.90042C42.1284 7.38898 40.8284 7.13232 39.3146 7.13232H30.0156V29.1262H39.3146C41.8736 29.1262 43.8711 28.5255 45.3087 27.3259C46.7444 26.1263 47.4642 24.4432 47.4642 22.2766C47.4642 21.4694 47.3452 20.6976 47.109 19.9593C46.8728 19.221 46.4394 18.5384 45.809 17.9079L45.8071 17.9061ZM34.5888 10.9691H39.6382C40.3468 10.9691 40.9121 11.1718 41.3362 11.5735C41.7583 11.9771 41.9704 12.5146 41.9704 13.1822C41.9704 13.8499 41.7583 14.3874 41.3362 14.7909C40.9121 15.1945 40.3468 15.3972 39.6382 15.3972H34.5888V10.9691ZM42.0578 24.3428C41.5073 24.8747 40.7689 25.1407 39.8428 25.1407H34.587V19.3846H39.8428C40.7671 19.3846 41.5054 19.6506 42.0578 20.1806C42.6083 20.7125 42.8835 21.4118 42.8835 22.2766C42.8835 23.1414 42.6083 23.8128 42.0578 24.3428Z" fill="white"/>
<path d="M54.4868 6.77515H50.0586V29.1242H54.4868V6.77515Z" fill="white"/>
<path d="M70.0736 13.7418C68.7755 13.0147 67.3286 12.6501 65.7329 12.6501C64.1372 12.6501 62.6866 13.0147 61.3791 13.7418C60.0698 14.4709 59.0265 15.464 58.2491 16.7231C57.4717 17.9822 57.083 19.4291 57.083 21.062C57.083 22.6949 57.4717 24.1176 58.2491 25.3878C59.0265 26.6581 60.0698 27.6568 61.3791 28.384C62.6884 29.1111 64.1391 29.4757 65.7329 29.4757C67.3267 29.4757 68.7736 29.1111 70.0736 28.384C71.3736 27.6549 72.4114 26.6562 73.1888 25.3878C73.9662 24.1176 74.3549 22.6763 74.3549 21.062C74.3549 19.4477 73.9662 17.9822 73.1888 16.7231C72.4114 15.464 71.3736 14.469 70.0736 13.7418ZM69.2609 23.3663C68.9169 24.0358 68.4445 24.5565 67.8438 24.9303C67.243 25.3042 66.54 25.492 65.7329 25.492C64.9257 25.492 64.2172 25.306 63.6072 24.9303C62.9971 24.5565 62.5192 24.0358 62.1751 23.3663C61.8311 22.6967 61.6581 21.9305 61.6581 21.0638C61.6581 20.1972 61.8311 19.4347 62.1751 18.7763C62.5192 18.1179 62.9971 17.5953 63.6072 17.2122C64.2172 16.8291 64.9257 16.6357 65.7329 16.6357C66.54 16.6357 67.243 16.8272 67.8438 17.2122C68.4445 17.5953 68.9169 18.1179 69.2609 18.7763C69.605 19.4365 69.7779 20.199 69.7779 21.0638C69.7779 21.9286 69.605 22.6986 69.2609 23.3663Z" fill="white"/>
<path d="M82.813 17.1973C83.4137 16.8235 84.0962 16.6357 84.8643 16.6357C85.731 16.6357 86.4935 16.8719 87.1519 17.3443C87.8102 17.8166 88.2789 18.4564 88.5541 19.2636L92.3928 17.6102C92.0785 16.6059 91.5558 15.7355 90.8287 14.9972C90.0996 14.2589 89.2237 13.6842 88.2008 13.2695C87.1779 12.8566 86.0657 12.6501 84.8643 12.6501C83.25 12.6501 81.7938 13.0147 80.4957 13.7418C79.1975 14.4709 78.1728 15.4696 77.4252 16.738C76.6775 18.0082 76.3037 19.4402 76.3037 21.0341C76.3037 22.6279 76.6831 24.0655 77.44 25.3451C78.197 26.6246 79.2217 27.6326 80.5106 28.3709C81.7994 29.1093 83.2519 29.4775 84.8643 29.4775C86.0843 29.4775 87.2058 29.2655 88.2305 28.8433C89.2534 28.4212 90.1294 27.8353 90.8584 27.0877C91.5856 26.3401 92.0989 25.4939 92.3928 24.5491L88.5541 22.866C88.2789 23.6731 87.8158 24.3129 87.1667 24.7853C86.5177 25.2577 85.7496 25.4939 84.8643 25.4939C84.0962 25.4939 83.4118 25.3079 82.813 24.9322C82.2123 24.5584 81.7399 24.0376 81.3958 23.3681C81.0518 22.6986 80.8788 21.9324 80.8788 21.0657C80.8788 20.199 81.0518 19.4328 81.3958 18.7633C81.7399 18.0938 82.2123 17.573 82.813 17.1992V17.1973Z" fill="white"/>
<path d="M104.88 13.0054L99.4193 18.8061V6.77515H94.9893V29.1242H99.4193V24.1902L101.199 22.2505L105.294 29.1242H110.312L104.497 19.4998L110.342 13.0054H104.88Z" fill="white"/>
<path d="M127.79 17.9785C128.478 16.9259 128.824 15.6519 128.824 14.1548C128.824 12.6577 128.49 11.3316 127.82 10.2883C127.15 9.24495 126.23 8.45826 125.06 7.92636C123.888 7.39446 122.546 7.13037 121.03 7.13037H112.616V29.1242H117.191V21.1532H120.438L124.896 29.1242H130.033L125.014 20.3553C126.174 19.8234 127.098 19.0312 127.788 17.9785H127.79ZM123.849 15.7207C123.583 16.1745 123.215 16.5279 122.743 16.7827C122.27 17.0393 121.709 17.1658 121.06 17.1658H117.193V11.114H121.06C121.709 11.114 122.27 11.2424 122.743 11.4972C123.215 11.7538 123.585 12.1072 123.849 12.561C124.115 13.0147 124.247 13.5448 124.247 14.1548C124.247 14.7648 124.115 15.2669 123.849 15.7189V15.7207Z" fill="white"/>
<path d="M143.437 13.7418C142.137 13.0147 140.692 12.6501 139.098 12.6501C137.504 12.6501 136.052 13.0147 134.744 13.7418C133.435 14.4709 132.392 15.464 131.614 16.7231C130.837 17.9822 130.448 19.4291 130.448 21.062C130.448 22.6949 130.837 24.1176 131.614 25.3878C132.392 26.6581 133.435 27.6568 134.744 28.384C136.052 29.113 137.504 29.4757 139.098 29.4757C140.692 29.4757 142.139 29.1111 143.437 28.384C144.735 27.6568 145.775 26.6562 146.552 25.3878C147.33 24.1176 147.718 22.6763 147.718 21.062C147.718 19.4477 147.33 17.9822 146.552 16.7231C145.775 15.464 144.737 14.469 143.437 13.7418ZM142.624 23.3663C142.28 24.0358 141.808 24.5565 141.207 24.9303C140.606 25.3042 139.903 25.492 139.096 25.492C138.289 25.492 137.581 25.306 136.971 24.9303C136.361 24.5565 135.883 24.0358 135.538 23.3663C135.194 22.6967 135.021 21.9305 135.021 21.0638C135.021 20.1972 135.194 19.4347 135.538 18.7763C135.883 18.1179 136.361 17.5953 136.971 17.2122C137.581 16.8291 138.289 16.6357 139.096 16.6357C139.903 16.6357 140.606 16.8272 141.207 17.2122C141.808 17.5953 142.28 18.1179 142.624 18.7763C142.968 19.4365 143.141 20.199 143.141 21.0638C143.141 21.9286 142.968 22.6986 142.624 23.3663Z" fill="white"/>
<path d="M160.973 13.3885C159.929 12.8975 158.73 12.6501 157.37 12.6501C156.228 12.6501 155.176 12.8268 154.21 13.182C153.245 13.5354 152.419 14.0376 151.731 14.6885C151.043 15.3375 150.541 16.1149 150.225 17.0207L153.768 18.7038C154.043 17.9952 154.48 17.4242 155.081 16.9909C155.681 16.5576 156.375 16.3418 157.162 16.3418C157.988 16.3418 158.642 16.5483 159.126 16.9611C159.607 17.374 159.849 17.8873 159.849 18.4973V18.9269L155.391 19.6485C154.112 19.8457 153.044 20.1804 152.189 20.6528C151.333 21.1252 150.697 21.711 150.284 22.4103C149.871 23.1096 149.665 23.9112 149.665 24.8169C149.665 25.7821 149.892 26.6134 150.344 27.3109C150.796 28.0101 151.447 28.5458 152.293 28.9196C153.139 29.2934 154.143 29.4812 155.304 29.4812C156.171 29.4812 156.957 29.3678 157.666 29.1409C158.374 28.914 159.014 28.5699 159.585 28.1069C159.779 27.9506 159.965 27.774 160.147 27.5898V29.126H164.279V18.4973C164.279 17.3368 163.989 16.3177 163.409 15.4417C162.829 14.5657 162.016 13.8813 160.973 13.3903V13.3885ZM159.394 24.4747C159.089 25.0159 158.661 25.4436 158.11 25.7579C157.56 26.0722 156.918 26.2303 156.191 26.2303C155.641 26.2303 155.177 26.0927 154.804 25.8175C154.43 25.5422 154.242 25.1591 154.242 24.6662C154.242 24.1343 154.409 23.7271 154.744 23.4406C155.079 23.1561 155.561 22.9534 156.191 22.8344L159.851 22.1816V22.6874C159.851 23.3365 159.699 23.9316 159.394 24.4747Z" fill="white"/>
<path d="M179.72 14.3575C179.298 13.9391 178.801 13.5913 178.228 13.3142C177.313 12.8715 176.264 12.6502 175.085 12.6502C173.551 12.6502 172.164 13.024 170.923 13.7717C169.683 14.5193 168.699 15.5273 167.972 16.7976C167.243 18.0659 166.88 19.4887 166.88 21.0639C166.88 22.6391 167.239 24.0359 167.957 25.3154C168.675 26.5949 169.655 27.6085 170.893 28.3561C172.134 29.1038 173.54 29.4776 175.115 29.4776C176.216 29.4776 177.241 29.2749 178.186 28.8732C178.913 28.5626 179.523 28.1367 180.016 27.5992V29.1242H184.148V6.77515H179.72V14.3575ZM179.203 23.3663C178.859 24.0359 178.381 24.5566 177.771 24.9304C177.161 25.3042 176.452 25.4921 175.645 25.4921C174.838 25.4921 174.114 25.3061 173.475 24.9304C172.835 24.5566 172.338 24.0359 171.983 23.3663C171.628 22.6968 171.451 21.9306 171.451 21.0639C171.451 20.1972 171.628 19.4347 171.983 18.7764C172.338 18.118 172.835 17.5954 173.475 17.2123C174.114 16.8292 174.838 16.6357 175.645 16.6357C176.452 16.6357 177.161 16.8236 177.771 17.1974C178.381 17.5712 178.857 18.0938 179.203 18.7615C179.547 19.431 179.72 20.1991 179.72 21.0639C179.72 21.9287 179.547 22.6987 179.203 23.3663Z" fill="white"/>
<path d="M195.809 19.736L193.24 18.9679C192.846 18.8489 192.517 18.7225 192.251 18.5848C191.985 18.4472 191.793 18.2891 191.674 18.1124C191.557 17.9358 191.498 17.7386 191.498 17.5229C191.498 17.11 191.659 16.7846 191.985 16.5484C192.31 16.3122 192.757 16.1931 193.328 16.1931C194.114 16.1931 194.819 16.3959 195.438 16.7994C196.058 17.203 196.487 17.7386 196.724 18.4081L200.001 16.8738C199.508 15.5348 198.667 14.497 197.477 13.7587C196.287 13.0203 194.903 12.6521 193.329 12.6521C192.128 12.6521 191.066 12.8641 190.142 13.2863C189.216 13.7103 188.498 14.2943 187.986 15.0419C187.475 15.7896 187.218 16.6655 187.218 17.6698C187.218 18.8117 187.573 19.8011 188.28 20.6362C188.989 21.4731 190.002 22.0775 191.321 22.4513L194.066 23.2194C194.421 23.318 194.715 23.437 194.951 23.5728C195.187 23.7104 195.364 23.8629 195.483 24.0303C195.602 24.1977 195.66 24.3985 195.66 24.6347C195.66 25.0885 195.492 25.4419 195.158 25.6985C194.823 25.9552 194.341 26.0816 193.711 26.0816C192.844 26.0816 192.057 25.8361 191.349 25.3433C190.64 24.8523 190.079 24.1735 189.666 23.3068L186.418 24.843C186.891 26.2602 187.782 27.3872 189.089 28.2223C190.398 29.0592 191.938 29.4776 193.709 29.4776C194.968 29.4776 196.06 29.2656 196.986 28.8434C197.91 28.4213 198.634 27.8354 199.156 27.0878C199.677 26.3401 199.939 25.4642 199.939 24.4599C199.939 23.2994 199.586 22.3193 198.877 21.5233C198.169 20.7254 197.146 20.1303 195.807 19.736H195.809Z" fill="white"/>
<path d="M11.8692 7.0393L7.14346 9.76575L15.8993 15.3581V21.7261L10.3925 24.9063L4.88567 21.7261V0L0 2.8213V24.5474L10.3925 30.547L20.785 24.5474V12.5592L11.8692 7.0393Z" fill="white"/>
</svg>
