<svg width="32" height="32" viewBox="0 0 32 32" fill="none" xmlns="http://www.w3.org/2000/svg">
<rect width="32" height="32" rx="6" fill="url(#paint0_linear_1_6558)"/>
<rect width="32" height="32" rx="6" fill="url(#paint1_linear_1_6558)"/>
<g clip-path="url(#clip0_1_6558)">
<path d="M13.4375 15.5H10.0625C8.92522 15.5 8 14.5748 8 13.4375V10.0625C8 8.92522 8.92522 8 10.0625 8H13.4375C14.5748 8 15.5 8.92522 15.5 10.0625V13.4375C15.5 14.5748 14.5748 15.5 13.4375 15.5ZM10.0625 9C9.47663 9 9 9.47663 9 10.0625V13.4375C9 14.0234 9.47663 14.5 10.0625 14.5H13.4375C14.0234 14.5 14.5 14.0234 14.5 13.4375V10.0625C14.5 9.47663 14.0234 9 13.4375 9H10.0625ZM21.9375 15.5H18.5625C17.4252 15.5 16.5 14.5748 16.5 13.4375V10.0625C16.5 8.92522 17.4252 8 18.5625 8H21.9375C23.0748 8 24 8.92522 24 10.0625V13.4375C24 14.5748 23.0748 15.5 21.9375 15.5ZM18.5625 9C17.9766 9 17.5 9.47663 17.5 10.0625V13.4375C17.5 14.0234 17.9766 14.5 18.5625 14.5H21.9375C22.5234 14.5 23 14.0234 23 13.4375V10.0625C23 9.47663 22.5234 9 21.9375 9H18.5625ZM20.25 24C18.1823 24 16.5 22.3177 16.5 20.25C16.5 18.1823 18.1823 16.5 20.25 16.5C22.3177 16.5 24 18.1823 24 20.25C24 22.3177 22.3177 24 20.25 24ZM20.25 17.5C18.7337 17.5 17.5 18.7337 17.5 20.25C17.5 21.7663 18.7337 23 20.25 23C21.7663 23 23 21.7663 23 20.25C23 18.7337 21.7663 17.5 20.25 17.5ZM13.4375 24H10.0625C8.92522 24 8 23.0748 8 21.9375V18.5625C8 17.4252 8.92522 16.5 10.0625 16.5H13.4375C14.5748 16.5 15.5 17.4252 15.5 18.5625V21.9375C15.5 23.0748 14.5748 24 13.4375 24ZM10.0625 17.5C9.47663 17.5 9 17.9766 9 18.5625V21.9375C9 22.5234 9.47663 23 10.0625 23H13.4375C14.0234 23 14.5 22.5234 14.5 21.9375V18.5625C14.5 17.9766 14.0234 17.5 13.4375 17.5H10.0625Z" fill="white"/>
</g>
<defs>
<linearGradient id="paint0_linear_1_6558" x1="-2.93333" y1="16" x2="37.3444" y2="16.245" gradientUnits="userSpaceOnUse">
<stop stop-color="#2950B8"/>
<stop offset="0.994819" stop-color="#B30ACE"/>
</linearGradient>
<linearGradient id="paint1_linear_1_6558" x1="-2.93333" y1="16" x2="37.3444" y2="16.245" gradientUnits="userSpaceOnUse">
<stop stop-color="#2950B8"/>
<stop offset="0.994819" stop-color="#B30ACE"/>
</linearGradient>
<clipPath id="clip0_1_6558">
<rect width="16" height="16" fill="white" transform="translate(8 8)"/>
</clipPath>
</defs>
</svg>
