<svg width="250" height="39" viewBox="0 0 250 39" fill="none" xmlns="http://www.w3.org/2000/svg">
<g clip-path="url(#clip0_1_2711)">
<path d="M57.2584 22.9684C56.9701 22.6802 56.6354 22.4058 56.2588 22.1478C56.6284 21.7875 56.9376 21.4039 57.1863 20.9947C57.8512 19.8998 58.1813 18.749 58.1813 17.5448C58.1813 15.8478 57.8256 14.4018 57.1119 13.2092C56.3982 12.0166 55.3637 11.1006 54.0131 10.4613C52.6601 9.82203 51.0351 9.50122 49.1427 9.50122H37.519V36.9936H49.1427C52.3416 36.9936 54.8383 36.2427 56.6354 34.7432C58.4301 33.2438 59.3297 31.1399 59.3297 28.4315C59.3297 27.4226 59.181 26.4578 58.8857 25.5349C58.5905 24.612 58.0488 23.7588 57.2607 22.9707L57.2584 22.9684ZM43.2356 14.2972H49.5472C50.433 14.2972 51.1397 14.5505 51.6697 15.0527C52.1974 15.5572 52.4625 16.229 52.4625 17.0636C52.4625 17.8982 52.1974 18.57 51.6697 19.0745C51.1397 19.579 50.433 19.8323 49.5472 19.8323H43.2356V14.2972ZM52.5717 31.0143C51.8836 31.6792 50.9607 32.0116 49.803 32.0116H43.2332V24.8166H49.803C50.9584 24.8166 51.8813 25.149 52.5717 25.8116C53.2598 26.4764 53.6039 27.3505 53.6039 28.4315C53.6039 29.5126 53.2598 30.3518 52.5717 31.0143Z" fill="white"/>
<path d="M68.108 9.05493H62.5728V36.9913H68.108V9.05493Z" fill="white"/>
<path d="M87.5918 17.7633C85.9691 16.8543 84.1605 16.3987 82.1659 16.3987C80.1713 16.3987 78.358 16.8543 76.7237 17.7633C75.087 18.6746 73.7829 19.916 72.8111 21.4899C71.8394 23.0637 71.3535 24.8723 71.3535 26.9135C71.3535 28.9546 71.8394 30.733 72.8111 32.3208C73.7829 33.9086 75.087 35.157 76.7237 36.066C78.3603 36.9749 80.1736 37.4306 82.1659 37.4306C84.1582 37.4306 85.9668 36.9749 87.5918 36.066C89.2168 35.1547 90.514 33.9063 91.4858 32.3208C92.4575 30.733 92.9434 28.9313 92.9434 26.9135C92.9434 24.8956 92.4575 23.0637 91.4858 21.4899C90.514 19.916 89.2168 18.6723 87.5918 17.7633ZM86.5759 29.7938C86.1458 30.6307 85.5553 31.2816 84.8045 31.7489C84.0536 32.2162 83.1748 32.451 82.1659 32.451C81.1569 32.451 80.2712 32.2185 79.5087 31.7489C78.7462 31.2816 78.1487 30.6307 77.7187 29.7938C77.2886 28.9569 77.0724 27.9991 77.0724 26.9158C77.0724 25.8325 77.2886 24.8793 77.7187 24.0564C78.1487 23.2334 78.7462 22.5802 79.5087 22.1013C80.2712 21.6224 81.1569 21.3806 82.1659 21.3806C83.1748 21.3806 84.0536 21.62 84.8045 22.1013C85.5553 22.5802 86.1458 23.2334 86.5759 24.0564C87.006 24.8816 87.2222 25.8348 87.2222 26.9158C87.2222 27.9968 87.006 28.9592 86.5759 29.7938Z" fill="white"/>
<path d="M103.516 22.0827C104.267 21.6154 105.12 21.3806 106.08 21.3806C107.163 21.3806 108.117 21.6758 108.94 22.2663C109.763 22.8568 110.348 23.6565 110.692 24.6654L115.491 22.5988C115.098 21.3434 114.445 20.2554 113.536 19.3325C112.624 18.4096 111.529 17.6912 110.251 17.1728C108.972 16.6567 107.582 16.3987 106.08 16.3987C104.062 16.3987 102.242 16.8543 100.619 17.7633C98.9967 18.6746 97.7158 19.923 96.7812 21.5085C95.8467 23.0962 95.3794 24.8863 95.3794 26.8786C95.3794 28.8709 95.8536 30.6679 96.7998 32.2673C97.746 33.8668 99.0269 35.1268 100.638 36.0497C102.249 36.9726 104.065 37.4329 106.08 37.4329C107.605 37.4329 109.007 37.1679 110.288 36.6402C111.567 36.1124 112.662 35.3802 113.573 34.4456C114.482 33.5111 115.123 32.4533 115.491 31.2723L110.692 29.1685C110.348 30.1774 109.77 30.9771 108.958 31.5676C108.147 32.1581 107.187 32.4533 106.08 32.4533C105.12 32.4533 104.265 32.2208 103.516 31.7512C102.765 31.284 102.175 30.633 101.745 29.7961C101.314 28.9592 101.098 28.0014 101.098 26.9181C101.098 25.8348 101.314 24.877 101.745 24.0401C102.175 23.2032 102.765 22.5523 103.516 22.085V22.0827Z" fill="white"/>
<path d="M131.099 16.8428L124.274 24.0937V9.05493H118.736V36.9913H124.274V30.8238L126.499 28.3991L131.618 36.9913H137.89L130.62 24.9608L137.927 16.8428H131.099Z" fill="white"/>
<path d="M159.738 23.0592C160.598 21.7434 161.03 20.151 161.03 18.2796C161.03 16.4081 160.612 14.7506 159.775 13.4464C158.938 12.1422 157.787 11.1589 156.325 10.494C154.86 9.82914 153.182 9.49902 151.287 9.49902H140.77V36.9914H146.489V27.0275H150.548L156.12 36.9914H162.541L156.267 26.0302C157.717 25.3654 158.873 24.375 159.735 23.0592H159.738ZM154.811 20.237C154.479 20.8042 154.019 21.2459 153.428 21.5644C152.838 21.8852 152.136 22.0433 151.324 22.0433H146.491V14.4786H151.324C152.136 14.4786 152.838 14.639 153.428 14.9575C154.019 15.2783 154.481 15.72 154.811 16.2873C155.144 16.8545 155.309 17.517 155.309 18.2796C155.309 19.0421 155.144 19.6697 154.811 20.2347V20.237Z" fill="white"/>
<path d="M179.296 17.7633C177.671 16.8543 175.864 16.3987 173.872 16.3987C171.88 16.3987 170.064 16.8543 168.43 17.7633C166.793 18.6746 165.489 19.916 164.517 21.4899C163.545 23.0637 163.06 24.8723 163.06 26.9135C163.06 28.9546 163.545 30.733 164.517 32.3208C165.489 33.9086 166.793 35.157 168.43 36.066C170.064 36.9772 171.88 37.4306 173.872 37.4306C175.864 37.4306 177.673 36.9749 179.296 36.066C180.918 35.157 182.218 33.9063 183.189 32.3208C184.161 30.733 184.647 28.9313 184.647 26.9135C184.647 24.8956 184.161 23.0637 183.189 21.4899C182.218 19.916 180.921 18.6723 179.296 17.7633ZM178.28 29.7938C177.85 30.6307 177.259 31.2816 176.508 31.7489C175.757 32.2162 174.879 32.451 173.87 32.451C172.861 32.451 171.975 32.2185 171.212 31.7489C170.45 31.2816 169.852 30.6307 169.422 29.7938C168.992 28.9569 168.776 27.9991 168.776 26.9158C168.776 25.8325 168.992 24.8793 169.422 24.0564C169.852 23.2334 170.45 22.5802 171.212 22.1013C171.975 21.6224 172.861 21.3806 173.87 21.3806C174.879 21.3806 175.757 21.62 176.508 22.1013C177.259 22.5802 177.85 23.2334 178.28 24.0564C178.71 24.8816 178.926 25.8348 178.926 26.9158C178.926 27.9968 178.71 28.9592 178.28 29.7938Z" fill="white"/>
<path d="M201.215 17.3216C199.911 16.7079 198.412 16.3987 196.712 16.3987C195.285 16.3987 193.969 16.6195 192.763 17.0636C191.556 17.5053 190.524 18.1329 189.664 18.9466C188.804 19.7579 188.176 20.7297 187.781 21.8618L192.209 23.9657C192.553 23.08 193.1 22.3663 193.851 21.8246C194.602 21.283 195.469 21.0133 196.452 21.0133C197.484 21.0133 198.303 21.2713 198.907 21.7874C199.509 22.3035 199.811 22.9451 199.811 23.7077V24.2447L194.239 25.1467C192.64 25.3931 191.305 25.8115 190.236 26.402C189.166 26.9925 188.371 27.7248 187.855 28.5989C187.339 29.473 187.081 30.475 187.081 31.6071C187.081 32.8136 187.365 33.8528 187.93 34.7246C188.495 35.5987 189.308 36.2682 190.366 36.7355C191.424 37.2027 192.679 37.4375 194.13 37.4375C195.213 37.4375 196.196 37.2957 197.082 37.0121C197.968 36.7285 198.768 36.2984 199.481 35.7196C199.723 35.5243 199.955 35.3034 200.183 35.0733V36.9935H205.349V23.7077C205.349 22.257 204.986 20.9831 204.261 19.8881C203.536 18.7932 202.52 17.9377 201.215 17.3239V17.3216ZM199.242 31.1794C198.86 31.8559 198.326 32.3905 197.638 32.7834C196.95 33.1763 196.148 33.3739 195.239 33.3739C194.55 33.3739 193.972 33.2019 193.504 32.8578C193.037 32.5138 192.802 32.0349 192.802 31.4188C192.802 30.7539 193.011 30.2448 193.43 29.8868C193.848 29.5311 194.45 29.2777 195.239 29.1289L199.814 28.313V28.9453C199.814 29.7566 199.623 30.5005 199.242 31.1794Z" fill="white"/>
<path d="M224.649 18.5329C224.121 18.0098 223.5 17.5751 222.784 17.2287C221.64 16.6754 220.329 16.3988 218.855 16.3988C216.937 16.3988 215.203 16.866 213.653 17.8006C212.102 18.7351 210.872 19.9951 209.963 21.5829C209.052 23.1684 208.599 24.9468 208.599 26.9159C208.599 28.8849 209.047 30.6308 209.945 32.2302C210.842 33.8296 212.067 35.0966 213.615 36.0312C215.166 36.9657 216.924 37.433 218.893 37.433C220.269 37.433 221.55 37.1796 222.731 36.6775C223.64 36.2892 224.402 35.7569 225.018 35.085V36.9913H230.184V9.05493H224.649V18.5329ZM224.002 29.7939C223.572 30.6308 222.975 31.2817 222.212 31.749C221.45 32.2163 220.564 32.4511 219.555 32.4511C218.546 32.4511 217.642 32.2186 216.842 31.749C216.042 31.2817 215.422 30.6308 214.978 29.7939C214.534 28.957 214.313 27.9992 214.313 26.9159C214.313 25.8326 214.534 24.8794 214.978 24.0565C215.422 23.2335 216.042 22.5802 216.842 22.1014C217.642 21.6225 218.546 21.3807 219.555 21.3807C220.564 21.3807 221.45 21.6155 222.212 22.0828C222.975 22.55 223.57 23.2033 224.002 24.0379C224.432 24.8748 224.649 25.8349 224.649 26.9159C224.649 27.9969 224.432 28.9593 224.002 29.7939Z" fill="white"/>
<path d="M244.76 25.256L241.55 24.2959C241.057 24.1471 240.645 23.9891 240.313 23.817C239.98 23.645 239.741 23.4474 239.592 23.2265C239.446 23.0057 239.371 22.7593 239.371 22.4896C239.371 21.9735 239.574 21.5667 239.98 21.2714C240.387 20.9762 240.945 20.8274 241.659 20.8274C242.642 20.8274 243.523 21.0808 244.297 21.5853C245.072 22.0898 245.609 22.7593 245.904 23.5962L250 21.6783C249.384 20.0045 248.333 18.7073 246.845 17.7843C245.358 16.8614 243.628 16.4011 241.661 16.4011C240.159 16.4011 238.832 16.6661 237.677 17.1939C236.519 17.7239 235.622 18.4539 234.982 19.3884C234.343 20.323 234.022 21.4179 234.022 22.6733C234.022 24.1007 234.466 25.3374 235.35 26.3812C236.235 27.4273 237.502 28.1829 239.15 28.6502L242.582 29.6103C243.026 29.7335 243.393 29.8823 243.688 30.052C243.984 30.224 244.204 30.4146 244.353 30.6239C244.502 30.8331 244.574 31.0842 244.574 31.3794C244.574 31.9466 244.365 32.3883 243.946 32.7091C243.528 33.03 242.926 33.188 242.138 33.188C241.054 33.188 240.071 32.8812 239.185 32.2651C238.3 31.6514 237.598 30.8029 237.081 29.7195L233.022 31.6398C233.613 33.4112 234.726 34.82 236.361 35.8638C237.997 36.9099 239.922 37.433 242.135 37.433C243.709 37.433 245.074 37.168 246.232 36.6403C247.387 36.1126 248.291 35.3803 248.945 34.4457C249.596 33.5112 249.923 32.4162 249.923 31.1609C249.923 29.7102 249.482 28.4851 248.596 27.4901C247.71 26.4928 246.432 25.7489 244.758 25.256H244.76Z" fill="white"/>
<path d="M14.8365 9.38506L8.92932 12.7931L19.8742 19.7836V27.7435L12.9906 31.7188L6.10709 27.7435V0.585938L0 4.11256V31.2701L12.9906 38.7697L25.9813 31.2701V16.2849L14.8365 9.38506Z" fill="white"/>
</g>
<defs>
<clipPath id="clip0_1_2711">
<rect width="250" height="38.1838" fill="white" transform="translate(0 0.585938)"/>
</clipPath>
</defs>
</svg>
